<svg xmlns="http://www.w3.org/2000/svg" viewBox="0 0 1166.37 1238.13"><defs><style>.cls-1{fill:#fcb514;}.cls-2,.cls-3{fill:#a32638;}.cls-3{fill-rule:evenodd;}</style></defs><g id="katman_2" data-name="katman 2"><g id="katman_1-2" data-name="katman 1"><path class="cls-1" d="M438.78,609.43a164.49,164.49,0,1,0,224.76-60c-1.28-.74-2.57-1.47-3.87-2.17A945.35,945.35,0,0,0,544,492.31,842,842,0,0,1,435.06,440.9C325.88,362.68,300.78,210.75,379,101.57s230.14-134.27,339.32-56A243.19,243.19,0,0,1,819.56,230.58H723.61C718.47,154.43,655,95.8,577.45,95.8a146.5,146.5,0,0,0-77.26,270.85S565,403.17,630.57,424.86l46.55,17.79c137.49,51.13,207.5,204,156.37,341.52S629.46,991.68,492,940.55C358.46,890.9,287.89,744.79,332,609.35"/><path class="cls-2" d="M431.28,437.33a245.92,245.92,0,0,1-63.87-72l.64-.38C190.13,484,142.39,724.75,261.42,902.67s359.77,225.67,537.7,106.63A387.63,387.63,0,0,0,961.44,600.69l-5.33,1H717.39v94H875.23v.95C870.72,858.4,735.94,985.87,574.18,981.36S284.94,842.07,289.45,680.31a293,293,0,0,1,143-243.57"/><path class="cls-2" d="M455.49,321.44a147.81,147.81,0,0,0,46,45.29s26,14.59,61.68,30.84l-1.21-1.29c6.74-.46,13.55-.72,20.38-.72a292.1,292.1,0,0,1,204,82.66l64.26-71.71a388.89,388.89,0,0,0-394.48-85.43"/><path class="cls-1" d="M977.19,1053.59c-35.55,9.53-73.48,12.59-108,24.36,58.42-50.07,55.08-127.61,94.1-186.67,12.41-16.73,22.69-34.24,37.19-50.12-23.75,47.6-13.44,109.36-40.71,155.57a200.82,200.82,0,0,1-42.1,50.56c5.42-.21,10.15-4.88,14.93-8,44.28-44.21,102.14-56.54,150.05-92.53,19.17-15.29,36.75-35.34,45.18-57-9.07,73.32-82,142-150.69,163.87Z"/><path class="cls-1" d="M1136.7,756.83c-21.67,30.84-47.89,59.53-67.91,90.86,2.24-24.8,5.14-55.31-4.5-78.8-16.73-50.61-31.45-102-36.18-157.53l.64-21.23c12.62,56.72,68.31,95.71,64.82,159.35,1.26,15.42-3.5,28.53-6.4,42.07l1,1,2.57-2.8c8.27-31.21,12.44-64,25.29-93.15,18.25-41.89,41.12-84.17,31.77-134.78,27.75,59.65,19.35,139.33-11,195Z"/><path class="cls-1" d="M1102.44,435.5C1139,485,1147,564,1120.43,620.71a324.69,324.69,0,0,0-20.82,76.36c-1.85-4.6-2.26-10.77-3.93-15.88C1081.16,625.6,1028.57,586,1007,533.56a269.52,269.52,0,0,1-16-53.46c23.13,42.74,80.06,64.82,95.56,111.9,6.38,11.9,6,26.79,10,39.58a1.6,1.6,0,0,0,1.67-1.43c-6.84-48.53-4.75-99.29,1.82-147.2-.38-25.93-2.9-51.12-17.32-71.19,9.25,5.37,13.42,15.73,19.84,23.74Z"/><path class="cls-1" d="M1076.73,426c9.59,43.42-4.42,85.67,4.4,129.47l-.33.36c-23.6-46.4-73.72-68.32-108.18-105.38-20-22.06-28.66-48.84-33.67-77.37,19.76,47.66,73.07,58.14,103.68,98.26,10.28,9.26,13.57,22.08,20.17,32.57l1.08-1c-17.6-37.58-23.49-79.86-35.77-119.93a92.65,92.65,0,0,0-34.73-45.36c40.18,8.2,75,50.14,83.35,88.52Z"/><path class="cls-1" d="M969.33,326.5c30.27,27.09,43.95,62.15,52.79,98.49l5,11.52A433.8,433.8,0,0,1,915.25,317.63L881,283c30.1,12.85,62.56,20.38,88.32,43.51Z"/><path class="cls-1" d="M275.76,288.75c-30.36,26.6-51.41,60.27-73.92,91.65-20.2,25-46,41.46-68.91,62.94,12.36-25.7,12.85-56.18,30.33-79.67,24.93-43.49,71.17-58.78,112.5-74.9Z"/><path class="cls-1" d="M109.72,381.4c14.78-18.35,33.41-31.1,54.57-36.5C123.37,373,126,423.37,113.06,465.22c-4.14,15.42-11.31,29.73-14.88,45.59l1,.85a141.25,141.25,0,0,1,33.69-49.53c29.07-26.81,72-43.54,86.26-83.2-.64,55.13-46.62,98.47-90.63,129.44-18.14,15.91-35.64,34-45.62,54.51C81.94,549,85,535,84,520.12c-4.78-48.12-8.25-103,25.7-138.8Z"/><path class="cls-1" d="M27,546c-1.24-48.84,19-88.57,47.52-124.89.82-.44,1.41-1.26,2.57-1.05-31.38,47.7-5.42,107.79-6.84,161.92L66.1,637.45c.62.41.62,2.08,2.06,1.43a191.11,191.11,0,0,0,3.5-19.17c7.4-44.8,46.26-76.59,80.29-107.54a87.88,87.88,0,0,0,17.4-25.83,232.76,232.76,0,0,1-19,65.44c-26.45,51.58-75.31,93.89-84.23,153-4.34-56.54-42.87-98.9-39-158.91Z"/><path class="cls-1" d="M3.21,615.29c3.52-15.24,6.22-31,12.85-45-12.57,64.46,30.85,110.9,45,166.81C67,758,68.47,780.4,77,800c.79.44,1.49-.41,2-1-21.18-59.34,9.38-114.5,40.12-161,7.45-12.59,11.77-26.6,15.42-41.12,3.26,26.86-3.52,57.81-7.43,85.69-7.45,35.5-18.61,69.14-28.27,103.58-6.38,21.51-4.71,45.8-1.42,68.34L94.3,851.9C71.78,810.37,27.19,778,13.93,732.62,3,696.46-4.06,654.56,3.21,615.14Z"/><path class="cls-1" d="M1.21,741.2c5,68.32,78.44,104.43,112.49,161,8,11.57,15.07,24.37,25.71,34.06-1.7-7.28-8.48-13.39-11-20.85-11.92-23.72-16.27-52-13.39-80.68,3.29-34.9,18-67.28,12.34-104,29.94,64.52,20.84,145.07,37.57,215,4.37,15.29,13.24,28.94,19.05,43.54C122.49,947.41,38.65,907.57,11.38,830.83-.13,804.35-1.47,771.58,1.1,741.2Z"/><path class="cls-1" d="M37.94,898.09c34.28,77.57,120.15,84,177.72,131.21a141.54,141.54,0,0,0,33.65,23l.62-.62c-13.22-12-28.51-25.57-37.76-41.12-33.7-46.85-21.85-112.5-47.09-162.87,22.93,27.42,43.7,56,57.65,87.07,20.56,50.82,28.45,108.24,76.13,146.64-51.58-17-112-12.24-157.55-44C91.6,1006.78,47.24,955.1,37.94,898Z"/><path class="cls-1" d="M126,1042.82c55,62.51,144.78,41.66,218,58,10.28,1.41,19.81,5.55,30.84,3.88-8.71-5.53-20.82-4.94-30.36-10-57.39-20.17-65.82-82.24-97-124.22,39.79,26.45,73.28,62.1,110,96.64,26.4,23.14,58.19,33.8,91.65,40.61-8,2.93-18.58,2.14-27.21,4.4-60.15,14.78-127,39-190.77,17.32-41.45-13.06-84.25-45.85-105.12-86.69Z"/><path class="cls-2" d="M872.17,1188.52c-61.94,23.13-126.61-1-175-37.75-19.58-12.37-36.83-30.36-62.2-28.79a87.93,87.93,0,0,0-25.85,2.57,478.06,478.06,0,0,1,130.59,90.57,191.14,191.14,0,0,1-23.65,21.49C677.53,1195.18,635,1155.26,587.29,1132c-9.33,1.21-18.22,6.81-26.65,11.33-38.84,24.57-77.24,56.16-106.1,94.82l-24.8-20.56A451.75,451.75,0,0,1,561,1124.06c-47.06-14.91-77.8,24.52-113.52,44.59-41.67,29.07-101.55,42.72-151.88,22.67-27.06-10.28-53.28-25.39-72.89-50,39.61,27.29,98.6,30.15,143.65,12.44,60.43-26.22,123.24-59.48,196.11-43.57,11.36.21,22.41,11.52,33.15,1.88,54.16-14.06,115.48-4.39,162.11,20.36l48.06,19.27c44.67,16.5,102.42,11.93,140.69-15.26a168.89,168.89,0,0,1-74.33,52Z"/><path class="cls-1" d="M938.51,1124.5c-69.55,26.27-139.51-6-206.16-16.73l-12.85-1.65v-.38c31.87-7.25,62.79-16.74,88.16-39.64,37.34-36,70.6-72.86,112.09-101.16-30.85,39.45-34,95.59-84.82,121-12.57,8.23-28.45,9.69-41.43,15.91,18.5.42,35.44-6.22,53.77-8.07,68.16-10.69,146.11.29,193.92-57.77-17.76,40.45-62.2,74.33-102.68,88.54Z"/><path class="cls-1" d="M1064.89,928.85c-27.45,18-55.31,34.65-81.71,55.08v-2.57c40.43-67.18,20.56-159.48,45.59-233.42l9.28-24.78c-5.14,46.09,14.81,85.1,13.42,131.31a148,148,0,0,1-25.19,75h2.57c19.79-26,35.26-53.7,58.42-78.47,36-34.65,72.46-70.17,77.11-118.23,12.18,80.27-32.85,150.61-99.49,196.08Z"/><polygon class="cls-3" points="579.43 741.85 587.11 741.85 587.11 934.79 579.43 934.79 579.43 741.85"/><polygon class="cls-3" points="537.71 722.9 543.13 728.35 406.61 864.68 401.18 859.23 537.71 722.9"/><polygon class="cls-3" points="524.63 682.71 524.63 690.39 331.71 690.19 331.71 682.48 524.63 682.71"/><polygon class="cls-3" points="542.98 645.52 537.53 650.94 401.11 514.49 406.55 509.06 542.98 645.52"/><polygon class="cls-3" points="587.03 629.66 579.32 629.66 579.5 436.71 587.19 436.71 587.03 629.66"/><polygon class="cls-3" points="625.61 648.06 620.22 642.61 756.82 506.37 762.22 511.81 625.61 648.06"/><polygon class="cls-3" points="640.54 691.01 640.52 683.32 833.44 683.07 833.47 690.75 640.54 691.01"/><polygon class="cls-3" points="618.26 730.28 623.68 724.83 760.21 861.16 754.82 866.58 618.26 730.28"/><path class="cls-3" d="M655.22,493.46C761.61,533.16,815.68,651.59,776,758S617.85,918.45,511.45,878.75,351,720.61,390.7,614.22l.05-.14C430.5,507.77,548.88,453.78,655.22,493.46Zm-3.11,8.33c101.72,38,153.36,151.29,115.35,253s-151.29,153.36-253,115.35-153.36-151.29-115.35-253S550.39,463.82,652.11,501.79Z"/><path class="cls-3" d="M638.72,537.57a158.43,158.43,0,1,1-203.87,92.94A158.41,158.41,0,0,1,638.72,537.57ZM635.58,546a149.48,149.48,0,1,1-192.35,87.69A149.48,149.48,0,0,1,635.58,546Z"/><path class="cls-3" d="M622.73,580.36a112.75,112.75,0,1,1-145.09,66.15v0a112.78,112.78,0,0,1,145.08-66.13Zm-2.87,7.71a104.58,104.58,0,1,1-134.57,61.38v0A104.65,104.65,0,0,1,619.86,588.07Z"/><path class="cls-3" d="M604.74,628.48a61.37,61.37,0,1,1-79,36h0A61.41,61.41,0,0,1,604.74,628.48Zm-3.11,8.3A52.51,52.51,0,1,1,534,667.62a52.51,52.51,0,0,1,67.59-30.84Z"/><path class="cls-3" d="M703.13,463C827.4,531.4,874.59,686.79,808.51,810S587.78,977.46,463.48,909,292,685.25,358.11,562.06s220.75-167.45,345-99Zm-4.37,8.09C818.56,537,864,686.77,800.23,805.38S587.5,966.77,467.72,900.84,302.49,685.17,366.25,566.56,579,405.18,698.76,471.1Z"/><path class="cls-2" d="M733.3,805.23c.13,1.31-.3,4.57.31,5.32s3,.8,4,.44a15.61,15.61,0,0,0,6.91-7.59,7.4,7.4,0,0,0,1.34-4.93l-2-6c-.51-2.09-1.15-5.79-3.39-6.64.21-.56.9-1.43.82-2.23-.51-2.34-4.44-1.72-5.86,0-.72.87-.51,2.72-.66,3.8a29.46,29.46,0,0,1-1.49,8.43c-.85,1.93-3.24,4.55-3.29,6.71a3.51,3.51,0,0,0,3.23,2.57ZM602.09,788.65l.7,1.54c0,.28.36.77.62.75,1.79,1.72,4.29-2.24,1.31-2.78-.29,0-.83-.2-1.08,0a3.13,3.13,0,0,0-1.55.39Zm2-3.91c-1.2,1.19-1.64,2,.31,2.91ZM572.2,761.41c-1.92,1.77-1.77.69-2.77,1.31s-.13,1.33-.8,2.57c-.2.54-1,.87-.92,1.41a2,2,0,0,0,1.49,1.47,11.88,11.88,0,0,0,5.14-.75c1-.87.61-1.93,1-2.75.23-.31.69-.87,1-1.16,0-1.36-2.72-3-4.24-2Zm76.52-8.2.28,2.57-.31,2.16a33.4,33.4,0,0,0,7.2-2.57c.77-.34,2.29-1,2.88-.52a1.59,1.59,0,0,1,.2,1.85,20.32,20.32,0,0,1-2.77,4c-2.14,2.34-5.32,2.57-8,5-1.43,1.47-1.82,2.86-3.26,4.32a20,20,0,0,1-3.21,2.42c-.72.87-.13,1.36-1.62,2.28l.85-2c-.83-.18-1.88,0-2.57-.85a3.5,3.5,0,0,1-.26-2.36,26,26,0,0,1,1.64-7.12,23.07,23.07,0,0,1,3.06-1.34l-.36,1.65a7.55,7.55,0,0,0,2.57-.52c1.31-.38,2.57-3.16,3.29-4.29l-3.6,1.39a18.92,18.92,0,0,1,3.89-6.22Zm-70.91,8c-.54,2.45,1,1.52,1.85,2.57a3,3,0,0,1,.77,2.09l-2.08.43-.93,1.44-1.18,1.44,3.57,1c-1.77.7-2.88.54-4,2.24l4.47-.41c2.93,0,5.14.62,7.92-1l-.59-.46.8-2.57-2-1.16-.69-1.54-3.34-4-1.14-.43c1-1.16,2.86-3.22.13-3.76L580,757l1.18-1.44a4.72,4.72,0,0,0-4.19.9C575.6,758.17,575.57,760.3,577.81,761.17Zm-1.57-34.33v1.87l-.62-.74v3.18c.49,1.83,2.57,1.11,3,.54a3,3,0,0,0,.59-1.92,2.14,2.14,0,0,0-.67-1.29,2.85,2.85,0,0,0-1.36-.15l-.15-1.57h-.8ZM358.47,743.7c0,4,.95,3.9,1.85,7.32a18.57,18.57,0,0,0,1.18,6c.69,1.54,1.13,3.11,2.8,3.75a41,41,0,0,0-2.57-11.25,35,35,0,0,1-2.78-5.91h-.51Zm365-44a2.56,2.56,0,0,0-1.56,2.8,1.79,1.79,0,0,0,1.56,2,1.68,1.68,0,0,0,.8-.08c1.77-.69,2.08-5.27-.8-4.73Zm-249.82-.59c-.64,1.39-.77,2.75.67,3.68,0-1.34.36-2.68-.57-3.68Zm78.06,1.29.87.71a29.85,29.85,0,0,0,3.78-4.6A9.87,9.87,0,0,1,559,694.4c.47-.56.42-1.1.57-1.9s1.18-1.47,1-3.32-1-3.9-2.77-3.49l-.42-1.29a5.89,5.89,0,0,0-2.82,1.06c-.75.59-.36,1.62-1.34,2.57a11.58,11.58,0,0,1-3.73,2.57c-.77.33-.41,1.1-1.64,2-1.75,1.23-2.88.51-3.91.87a16.42,16.42,0,0,0-4.19,3.32,11.83,11.83,0,0,0-2.41,4.78c-.21.54-.65,1.39-.34,1.9s1.11.41,1.62,0c1-.36,3.29-1.62,4.11-1.44a7.6,7.6,0,0,1,1.68.67,12.47,12.47,0,0,1,1.9.36,7.55,7.55,0,0,1,1.74,1.44c1.42.67,2.83-1.06,3.24-2.16a3.9,3.9,0,0,0,.34-1.9Zm1.54-20.57v.29l-.28-.26Zm2.34,1.93c.69,1.54,3.29,3.19,4.75,4.4a2,2,0,0,0,.93-1.16c.67-1.39.36-4-1-4.73a3.17,3.17,0,0,0-2.57.26,2.91,2.91,0,0,0-.67-1.29c-2.08-2-4.68,3.63-1.33,2.57Zm-10.85-3.44c1.78,1.72,1.83,2,4.19,1.77-.36,1.62-2.57,4.22-4.21,3-1.13-.69-1.26-1.74-1.8-2s-.93,1.44-1.39,2c-1.13,2-3,1.88-3.19,5.14l1-.62c1,2.06,2.91-.25,4.17-.9a5,5,0,0,0-.9,1.42,1.07,1.07,0,0,0,.86,1.25,1,1,0,0,0,.58-.05c.77-.33,1.69-1.74,2.41-2.36a5.66,5.66,0,0,1,1.78-.95c.74-.59,1.69-1.49,2.44-2.08,2.21-1.83,2.31-.75,3.08-3.5,0-.54.18-.82,0-1.33-1.05-2.32-4.83-.39-5.14-.62l-1.64-.39c-.54-.23-1.57.13-2.37.21Zm12.21-.57-1.31.13.33.77c1.57-.41,2.57-.51,2.7-2.39-1.33.13-1.59.16-1.72,1.49Zm-83.25,5.14-1.21,6,.54,2.57,1.11,5.14a22.82,22.82,0,0,0,2-6.06l.31-2.19a6,6,0,0,0-.38-3.7l-1.73,1.49v-3.47h-.54Zm86-6.91c-.18-1.6,0-1.34,1.47-1.18v-2.57a9.39,9.39,0,0,0-2.57,1c-1.16,1.44-1,2.75,1.13,2.83Zm-7.86-3.57.9,1a6.82,6.82,0,0,1,4.06.43l-.65-1,.67-1.13c1.6-.13,1.72-1.49,1.06-2.75-.31-.26-.88-.47-1.16-.7-2.85-1.62-3.11.8-3.78,1.93l-1.1,2.24Zm6.83-.88a3.43,3.43,0,0,0,1.57-.41,3.18,3.18,0,0,0-.44-4c-.82-.2-1.26.64-1.2,1.16l-.18.82.15,1.34v1Zm-84.94,6.56a8.75,8.75,0,0,0,1.39-4.4c-1.86.87-1.7,2.47-1.5,4.32ZM483,661a14.05,14.05,0,0,1-.87,6.76,67.17,67.17,0,0,0-4.29,8.3l-.62-.74a9.8,9.8,0,0,0-.54,7.27,18.21,18.21,0,0,0,2.57-5.14,49,49,0,0,0,5-10.87,10.78,10.78,0,0,0-.26-5.14c-.33-.51-.59-.49-1.15-.69Zm240.65,7a27.64,27.64,0,0,0,2.26-8.51c1.26-5.73,3.91-8.35,3.14-15.42-.16-1.57-.77-4.73-2.57-5.14-3-.28-1.75,3.62-1.93,4.45a3.66,3.66,0,0,1-.33,1.9,19.87,19.87,0,0,0-.65,8.87l-.56,9.69.74,4.21Zm-42.82-45.62a3.22,3.22,0,0,0,.7,1.28l.87.72c1.7.9,2.57-.77,1.93-1.8a2.56,2.56,0,0,0-1.93-.61A3.46,3.46,0,0,0,680.87,622.36Zm39.56-4.63a29.79,29.79,0,0,0,2.21,8.35l2.34,4.35,2.75,8.3c1.44-1.72.66-3.8.2-5.63-1.18-3.62-2.9-7.22-4.34-10.56a15.45,15.45,0,0,0-3.16-4.81Zm-14.63-4.29-.2,3L702,615.11a9.57,9.57,0,0,0,2.29,6.22l2.91,2.13a80.09,80.09,0,0,1,6.81,6.35,20.49,20.49,0,0,1,2.57,4c.59.49,1.15,1,1.92.64s.62-1.67.83-2.21l.9-1.7a7.85,7.85,0,0,0-1.31-4.68l-1.75-3.85a16.67,16.67,0,0,0-2.39-4.86,10.5,10.5,0,0,0-5.86-2.41l-3.09-1.34ZM632.09,617c-.15,1.08-.26,2.7-1.54,3.09a4,4,0,0,1-1.65-.39l-1,3a10.14,10.14,0,0,0-1.18,3.86c-.13,1.34,1.72,1.16,2.57,0s1.1-2.24,1.8-3.37c1.08-2.23,3.11-3.24,3.34-5.94L632,617ZM714,607a15.5,15.5,0,0,0,2.57,4.57c.66,1.29.48,2.11,2,1.7A39.8,39.8,0,0,0,713.9,607ZM603.17,621.2c-2.95-.26-1,3-1.38,4.42s-3.63,3.52-5.14,2.57a3.72,3.72,0,0,1-2.37.21,7.21,7.21,0,0,0-2.21-.62l-4.21,3.06a5.32,5.32,0,0,1-2.78,1.31,3.72,3.72,0,0,0-2.34.75c-.72.61,0,2.15.34,2.93l1.25,1.74c-2.57.77-2.39,2.57-2.13,5.14a58.7,58.7,0,0,0,1,7.12,5.48,5.48,0,0,0,3.5,2.88,6.08,6.08,0,0,0,3,.54l.18-3.21h.8l.82,2.57h1.06l3.29.8.56.46c.36.77-.28,2.18-.21,3,.47,1.82,2.37,2.18,4,2a15.23,15.23,0,0,1,0,2.93c-.18,1.34-.64,1.41,1,4.19.33.51,1,1.8,1.8,1.72s2.44-2.08,4.19-3.06c.41,1.31.44,1.57,1.59,2.27l-.38,1.38,3-1.87c-.88,4.08-2.57,3.16-4.45,5.73-.64,1.41-.23,2.7-.62,4.09l.29.23,1-.62.77-.33c2.34-.49.51,2.33.57,2.87s.64,1,1.2,1.24l-1.23.9.72,1.82-4.75.41a17,17,0,0,0-6.28,3.78v.54l.83.18-4.55,2.29a12.83,12.83,0,0,0,4.49-.41c1.29-.39,1.06,0,2.58-.49l.84.46-.15,1.08,5.81,1.88c1.36.41,2.36-.21,3.21.23s.77,2.08,2.57,2.57,3.93-.62,5.76-1l-2.16,2.33,1,1.78,2.57-.75c-1.93,2-1.82.41-5.52.75.84.46,3.36,1.57,3.93,1.8,1.36.41,2.11-.21,4,.43s3.63,1.55,4.17-.92a5.28,5.28,0,0,0,.95,1.26,7,7,0,0,0,2.18.61c1.11.16,3.68,1.8,3.55,3.14l-.69.87a10.66,10.66,0,0,0-1.34-2.28c-1.52-1.73-3.83-1-5.73-1.37l-3.86-1-2.95-.28c-1.62,0-2.57-1.11-4.12-1-.54,0-1.28.39-1.23.9s.64,1,.93,1.26a20.14,20.14,0,0,1,3.67,1.8c1.44,1,1.93.65,3.32,1.06l1.41.66c1.08.18,1.29-.38,2.36-.2a6,6,0,0,1,2.19.33l-4.24,1.52-3.52-.46c.72,1.51,1,1.77-.18,3.21l-.65-1c-.71.85-.64,1.38-1.36,2.26l-1.18,1.44c-.21.54-.9,1.41-1.44,1.46s-1.7-.92-2.29-1.41a2.9,2.9,0,0,0-3-.26c1,1.52,1.46,1.21,2.85,1.88a36.19,36.19,0,0,1,5,4.09c-.26,0-.52,0-.72.61a5.84,5.84,0,0,0,.64,3.68,2.57,2.57,0,0,0,1.93.64l-3.14,3c1.39.38,1.88,0,3.06,1l-2.57.23-3.5-2.57-3.62-1.54a10,10,0,0,0,4.76-.44c2.26-1.26,1.18-3.85-.57-5.29a6.73,6.73,0,0,0-3.29-.77,17.58,17.58,0,0,0-3.8-.72l-2.91.51.21-.82c-.82-.18-1.13-.44-1.88.18-.87-.72-.9-1-2-1.16l.16,1.31-1.21-1.23-.13,1.36c-.64-1-.67-1.28-1.77-1.72l.9,3.39-.44.85a6.49,6.49,0,0,0-1.29,5.47,21,21,0,0,1-.64,6.46,20.75,20.75,0,0,1,0,5.34,24.52,24.52,0,0,1-1.59,5L594.08,742l-.88,1.7c-.46.82-1.18,1.44-1.62,2.28s.16,1.57.49,2.09c.44,1.56-.69,1.13,1.16,3.36l-1,1.16h1.05c-.59,1.93.62,3.16,2.44,2.72a5.66,5.66,0,0,0,3.09-3.47h.54l3.54,5.84c.62.74.77,2.06,1.85,2.24s1.49-1,2-1.78,1-.9,1.44-1.46c.64-1.42-.65-3.42-.52-4.78s.88-1.67,1-3c-.2-1.85-1.56-2.26-2.57-3.24a5.36,5.36,0,0,1-1.15-3.36c-.31-2.93,1.18-3.86,1.46-6.3,0-1.59-.82-2.57-.92-3.65s0-1.62.87-1.7c1.83-.41,2.06,1.7,2.21,3l-.26,2.57a10.91,10.91,0,0,0-.43,3.26,24,24,0,0,0,1.33,2.57c.62.75.7,1.54,1.29,2a1.45,1.45,0,0,0,1.39.41,3.79,3.79,0,0,0,1.62.39c1.31-.39,2.57-2.9,3.85-3.83.75-.59,1.83-.41,2.57-.49a23.35,23.35,0,0,1-2.08,2.85c-1,.62-2.83,1.06-2.93,2.57-.57,2.19,2.34,1.93,2.29,3.81,0,1.33-2.16-.34-2.8,1.31s.28,2.57.69,4a8.54,8.54,0,0,1-.54,2.44c-1.1,2-2.06.72-3.55,1.67s-2.57,2.57-4,3-1.91-.38-2.7-.31-1.93,1.78-3.7.34.25-2.7-.18-4.27l-1.08-2.57c-1.49.93-3,2.13-2.57,4.24s2.57,3.24,1.56,4.65c-.74.62-2.34.75-3.57,1.68s-3.06,3.75-3.55,4.06a15.24,15.24,0,0,0-2.26,1.26l-2.57,2.57-.46.59-3.32-1.06.21,1.85a6.16,6.16,0,0,1-2.42,0c-.82-.18-2.57-.3-2.85.8s1.77,1.44,2.31,1.67c3.37,1.57,4,5.14,2.57,6.71-1,.9-2.57.23-3.72,0-2.44-.31-6.27-1.31-8.69-1.36-3.16.28-2.16,2.34-2.78,4-.15,1.08-1.15,1.72-1.33,2.57a.93.93,0,0,0-.16.82c0-.25.85,3.14.83,2.88.38,1,2.23.88,3.31,1s1.72,1.18,2.88,1.88a3.13,3.13,0,0,0,2.57-.23c2.37-.21,4.63.92,8.15-1a3.22,3.22,0,0,0,1.72-1.49c.69-.85.36-1.62,1.31-2.57s3.57-1.64,4.81-2.57.28-2.41,2-3.13c1.31-.36,2.73.56,4.53,0s3.24-2.16,4.8-2.57,2.57,1.64,4.78,2.26l8.74,1.87a2.12,2.12,0,0,1,1.11.44c2.34,1.93-1,2.78-2.32,3.16a8.23,8.23,0,0,1-2.36.46c.31.24.31.52.62.75a6.06,6.06,0,0,0,4.78-.15,2.31,2.31,0,0,0,.33-1.91,2.53,2.53,0,0,0,1.95-1.77c0-.8-.43-1.57.29-2.18a3.7,3.7,0,0,1,2.34-.75c-1.24-1.49-2.24-.85-3.86-1-.82-.2-1.13-.69-1.95-.9s-1.54.67-2.57.24a17.64,17.64,0,0,0-2.57-1.11c-.88-.21-3-.8-2.91-2.13.21-.57.44-.85,1-.9a1,1,0,0,1,.77-.34l.36,1c2.83-1.05,1.9.36,4.34.7s4.78-.18,7,.69c1.39.41.93,1.26,2.13,2.57s3.55.74,5.4.59c-.23.28-.49.31-.46.57-.46.84.13,1.33.69,1.54,2,1.15,4.94-1.24,2.42-2.37l4.06-1.95c-2-.9-2.93,0-5.53-1.64a3.27,3.27,0,0,0,2.57-1l.16-1.08,4.29-2.26c-1.36,2.26.18,1.59.69,3.93,1.32,0,3,.28,4.27.15a24.72,24.72,0,0,0,4.6-2c.72-.62.93-1.42,1.65-2l3.06-1.34a17.62,17.62,0,0,0,3.13-3.21c.46-.59.93-1.16,1.75-1s1.39,3.09,1.51,4.17a9.2,9.2,0,0,1,.83,2.57c-.18,3.47-3.83,4.08-6,5.88-1.47,1.18-2.57,3.16-4.14,3.83a44.26,44.26,0,0,1-10.28,4.4l-5.48,1a7,7,0,0,0-3.16,3c-.41,1.1.26,2.39-1,3a26.56,26.56,0,0,1-7.86,1.24c-2.19-.34-1.44-.93-4.63-.65a35.39,35.39,0,0,1-9,.29,8.56,8.56,0,0,0,1.59-2.57c.21-.54,0-.8-.15-1.31a1.55,1.55,0,0,0-.39-1c-.62-.77-2.72-.57-3.52-.49a16,16,0,0,1-4.39,1.18l-9.77,1.16a84.41,84.41,0,0,0-10.28,2.57,20.34,20.34,0,0,1-5.66-.54c-1.13-.44-2.28-1.42-3.57-.77s-1.7,1.49-3.21,2.16a34.72,34.72,0,0,0-6.2,2.15c-1.72,1.24-.82,2.24-2.85,3.22a43.39,43.39,0,0,1-5.81.51,16.49,16.49,0,0,0-7,2.24l-2.83,1.05c-1,.36-3.11.82-3.55,1.65s.21,1.85.29,2.57a8.08,8.08,0,0,1-.29,2.44c-1.36,2-4.93,3.65-4.34,6.53.46,1.85,1.54,2,3.57,3.7,2.57,2.7,4.73,6.53,7.71,8.66a41.53,41.53,0,0,0,13.8,6.78l8.05.36a88.65,88.65,0,0,0,12.16,1.32l9.94-1.7A22.51,22.51,0,0,1,599,841c2.21.59,2.57,2.16,6.6,1.8l5.53-.77a4.63,4.63,0,0,1,3.72,0c3.4,1.82-2.36,5.29.26,7.45,1.47,1.21,6.32,1.57,8.25,2.21a19.19,19.19,0,0,1,6.53,3.42c.57.49.62,1,1.23,1.75s2,1.16,2.09,2-1.62,2.29-2.09,2.88c-1.46,1.47-4.26,5.14-2.57,7.45a12.45,12.45,0,0,0,3.14,1.86l7.71,2.26c3.34,1.28,3.62,3.93,5.65,5.37a12.81,12.81,0,0,0,5.68.82l8,1.95c2.77.83,1.62,2.57,3.77,2.88,4.61.39,11.62-3.72,15.43-6.19l7.58-3.88a94.14,94.14,0,0,0,8.48-5.32,38.5,38.5,0,0,0,12-15,48,48,0,0,0,3.55-6.73c.36-1.62-1.34-2.57-.69-3.93.87-2,4.31-4.68,5.14-6.89a2.85,2.85,0,0,0-.67-3.68c-1.11-.43-1.85.16-4.06-.43a72.93,72.93,0,0,1,7.19-12.67,16.41,16.41,0,0,0,3.24-7c0-2.42-2.13-2.57-3-3.47s-.67-1.28-1.23-1.52c-1.11-.41-2.88.54-4,.36a4,4,0,0,1-1.93-.61,4.5,4.5,0,0,0-2.57,0c-1.21-3.65,1.28-10.28,2.57-13.86,2.39-7.71,5.55-15.42,4.39-23.67l-1.2-6.3c-.34-.77-1-1.77-2-1.41-1.57.41-2.93,5.14-3.57,6.45l-3.57,6.48a25.63,25.63,0,0,1-2.73,4.52,17.24,17.24,0,0,1-3.78,2.21c-.41-1.31-1.15-1-2.18-.61l-4.81,2.57a12.9,12.9,0,0,1-4.29,2.26c-1,0-1.67-.64-3.21-.23a21.87,21.87,0,0,1-3.68.59c-1.1-.18-2.26-1.13-3.34-1.31a6.36,6.36,0,0,0-3.16.54,39.27,39.27,0,0,1-9.51-1.54c.51-.31,1-.36,1-.9.38-1.37-1.73-3.58.87-4.35h1l4.53-.13,2.57-.51c1.33.15,1.69.92,3.55.77l6.47-1.67c2.57-.23,3.73,2.34,6.48.49,2.24-1.52,4.34-6.79,5.14-9.28l2.29-5.81.9-4.09a15.35,15.35,0,0,0,1.56-7.89l-.54-5.14c-.23-2.13-.66-3.7-2.85-1.62-1.67,1.75-2.26,3.68-5,3.4-.72,3.26-.26,7.5-3.52,9.4-1.26.9-2.57.49-3.91.88-.77.33-1.77,1-2.34.74a1.28,1.28,0,0,1-1.45-1.09s0-.08,0-.11c.15-1.08,1.95-1.78,2.72-2.11a11.08,11.08,0,0,0,5.74-3.73c1.13-1.7,1.25-3.06,2.18-4.47s1.77-1,2.57-2.11,2-3.67,2.7-4.78l3.31-9.71c1.57-2.81,4.19-3.32,4.89-6.84l.41,1.28c2.77-1.31,2.77-4,2.21-6.6a52.13,52.13,0,0,0,6.12-.28l6-3.76c1.51-.92,4-2.75,4.34-4.39.41-1.11-1.31-4.71-1.93-5.45a2.06,2.06,0,0,0-1.18-1c-1.36-.41-3.19,0-4.19-1.78a72.6,72.6,0,0,1-3.6-8.76,27.37,27.37,0,0,0-3.37-6.37,10.73,10.73,0,0,1-.69-4c-.38-.76-.72-1.53-1-2.32-.13-1.05.62-1.64,1.31-2.57,1.13-2,.95-3.54,2.16-4.72s1.83-.44,2.26-1.29c1.65-2.29-2.28-4.06-1-6.58.69-1.13,2.57-3.19,3.93-3.29a14.83,14.83,0,0,0,2.9-.26c1-.25,1.06-2.57,1.49-3.62,1-2.78,2.57-2.57,3-6.43a7.71,7.71,0,0,0-.47-4.24c-1.23-1.49-2.95-.25-3.36.85a7.35,7.35,0,0,0-.54,4.86,11.8,11.8,0,0,1-1.31,5.14c-1.13,2-3.42.59-4.06-.44-.31-.49,0-1-.18-1.59a19,19,0,0,1,0-5.32,20.85,20.85,0,0,0,.84-4.63,20.78,20.78,0,0,0-3.13-4.26c-1.21-1.24-3.37-4-5.37-2.73s-1.39,4.4-1.72,6.3c-.18.82-.54,2.57-1.34,2.57a3.06,3.06,0,0,1-2-.88,7,7,0,0,1-2.57-4.85c.82.2,3,.79,3.16-.29s-1.37-2.8-2.42-2.72-1.23.93-2.57,0-3.78-5.27-5-6.76a18,18,0,0,0-6.12-4.81c-1.36-.41-5.83-2.13-7.07-1.23-.51.31-.41,1.11-.61,1.67a1.37,1.37,0,0,0-1.11-.44c-1.93-.36-2.57,1.83-2.57,3.17,0,.54.16,1.59-.62,1.92s-1.33-.15-1.92-.61a9.64,9.64,0,0,0-3.4-1.85,15.22,15.22,0,0,0,1.39,3.08c1.57,2,2.57,1.9,2.37,4.6a16.16,16.16,0,0,1-6.27-3.7l2-.72v-.54c-.85-.46-3.75-2.57-3.85-3.65s1-.9.87-1.7-.67-1.28-.26-2.39,2.24-1.54,2.14-2.57c0-.51-.65-1-1.21-1.2-1.13-.72-3.16-2.14-4.37-1s-.23,2.57-.77,5.15c-.83-.18-2.24-.88-3.06-1.06s-2.34.46-3.75-.2c-2-.62-2.57-2.16-4.32-2.83a13.39,13.39,0,0,0-8.53,0,14.9,14.9,0,0,0-4.71.95,5.1,5.1,0,0,0-1.87,2.31c-1.19,1.44-3.53,2.19-3.27,4.29s2.06,2,2.57,2.45l1.7,3.31a21.76,21.76,0,0,1-4.27,0l-6.24,1.36c-3.22,0-4.19-1.77-6.17-2.57-1.11-.43-1.9-.38-2.75-.82s-1-1.51-1.26-1.77a7.41,7.41,0,0,0-4.11-1,1.39,1.39,0,0,1-.39,1.39,6.73,6.73,0,0,1-3.75,2.21,2.36,2.36,0,0,1-1.88,0l.16-1.08c0-1.36-.7-1.28-1.7-.93a11.43,11.43,0,0,0-3.75,2.58,17.5,17.5,0,0,1,1.56-2.81,15.29,15.29,0,0,1,3.53-1.92l4-2.57c1.12-.58,2.2-1.22,3.26-1.91,2.21-1.8,2.57-7.45,2.08-10.28a24.59,24.59,0,0,0-5.76,3.45,13.59,13.59,0,0,1-2.28,1,3.67,3.67,0,0,0-1.11,2.24Zm28.15-9.69,2.57,1.9,2,3.55c1.51-.67,1.72-1.21,2.75-1.57.51-.31,3.8.47,3-1.62l-.87-.72-.18.83a13.53,13.53,0,0,0-3.16-2.14,23.63,23.63,0,0,0-6.17-.23Zm8.94,1.34c3.7-.34,3.06-1.36,5.14-1.54a9,9,0,0,1,3.76.2l-.16,1.08c2.21.88,2.08-.46,3.73,0s2.7,2.7,5.45,3.52c1.1.44,1.67.67,2.57,0,.64,1,.9,1,2,.9,0-1.33.9-1.67.54-2.57s-3.14-1.87-3.37.82c-1-1.26-.43-1.56-.79-2.33a3.9,3.9,0,0,0-4.12-1c-.54-2.57-.2-1.85-3.85-3.67a16.48,16.48,0,0,0-5-1.95c-1.62,0-2,1-3.29,1.64-.72.85-1.55.67-2.26,1.26a5.11,5.11,0,0,0-.44,3.52Zm55.85-11.62,3.34,3.7a36.36,36.36,0,0,0,4,5,5.19,5.19,0,0,0,4.4,1.21c1-.36,4.14-3.58,1.59-5-.85-.44-2.11.2-2.9.28a14.29,14.29,0,0,0-.52-4.78c0-.52-.15-1.6-1.2-1.24s.23,4.53-1.78,3.37l-.85-.46-.87-.72c-.92,1.16.18,1.59,1.08,2.57a5.14,5.14,0,0,1,2.26,3.52c-2.88-1.88-3.06-3.47-4.88-5.71a4.2,4.2,0,0,0-3.68-1.79Zm11.47-2.57a14.4,14.4,0,0,0,5.5,6.48c-1.31-2.47-3-5.81-5.5-6.66ZM511.93,618.09l2.39-.2,6.89,2.05c1.9.36,3.78.46,5.14,2.21-3.42.31-2.7-.28-5.42-.85a40,40,0,0,0-5.14.18,23.79,23.79,0,0,1-2.44-.56l-7.2.87c-1.88,0-2.29-1.39-3.39-1.82a2.83,2.83,0,0,0-3.19.28,26.49,26.49,0,0,0-5.14,3.14,36.72,36.72,0,0,0-9.31,7.71c-1.61,2.28-1.23,3.59-2.85,5.88s-5.42,4-8,7.4a28.17,28.17,0,0,0-2.39,5,26.3,26.3,0,0,1-4.53,2.8c-.74.33-1.54.41-2.05.72a7.87,7.87,0,0,0-1.62,2.29l-2.57,2.9a42.1,42.1,0,0,0-3.57,6.48c0,1.87,2.95,2.57,1.36,5.14l-.7.87c-1.74,1.23-2.21-.59-3.54-.74s-4.09,1.69-5.55.48c-.93-1-.54-2.36-.65-3.41s-1-1.78-1.36-2.81-.15-3.75-2-6.24c-1-1.52-2.08-2-2.93,0l-.65,1.64c-1-2.28-.43-4.21-2.36-4.6-2.42-.31-3.16,2.7-4.58,4.42a23.68,23.68,0,0,1-6.83,6l-3.6,3.8-2.24,1.54a16,16,0,0,0-2.57,5.32l-2.57,10.64c-.56,2.19-1.51,5.76-3.83,6.51a10,10,0,0,1-4,0c-.84-.44-1.46-1.19-2.28-1.39a9.61,9.61,0,0,1-4.86-.64c-1.18-1-2.73-3-3.83-3.4a6.72,6.72,0,0,0-3.24-.23,21.76,21.76,0,0,1-4.27,0c-2.75-.82-4.52-4.93-5.57-7.25a6.19,6.19,0,0,0-1.93-3c-1.16-1-2.57.77-4,.36s-3.49-2.57-4.88-3.32c-.31-.23-1.18-1-1.67-.64s-.7,1.13-.9,1.67a5.14,5.14,0,0,0,1.77,4.14c.31.23,1.21,1.21.46,1.83-1.23.9-3-3.22-4.39-1.21-.21.54-.18.82-.41,1.1h-.54l-1.26-4.44-.21-1.85-1.77-4.12L363,672.76l-.51-2.34-.72-1.82c-.41-1.29-1.46-1.21-2.57-.57-2,1.52-3.34,3.78-4.57,4.68s-2.57.23-3.68.59a6.36,6.36,0,0,0-2.57,3.7l-2,10.87c-1.75,8.46-2.88,10.44-1.9,19.43l1.08,5,1,6.86.9,3.39H348a43.34,43.34,0,0,1,.72-13.15c.95-3.58,2.57-4.25,2.57-8.54l.62,3.45c1.44-1.49,1.34-2.57,3.37-3.52a11.53,11.53,0,0,1,1.38,3.08,20,20,0,0,0,1.21,3.62,23.59,23.59,0,0,0,1.85,2.57,11.4,11.4,0,0,1,1.42,3.09c.72,1.8,1.31,4.68,3.49,5.29a16.46,16.46,0,0,0,.64-6.47c.21-.54.31-2.16.8-2.57,1.29-.39,1.83,2,1.9,2.75a27.24,27.24,0,0,0,2.57,6.45c1.31,2.31,2.34,1.95,4.06,5.52l.39-1.36c.72,1.8-.18,3.21,1.8,4.37a25.62,25.62,0,0,1,0-6.43c.21-.54,1-.61,1.54-.66l1.24,9a6.18,6.18,0,0,0,1.13,3.09c1.49,1.49,3.23.25,3.9,1.54l1,4.7A75,75,0,0,0,389.13,749a24.36,24.36,0,0,0,4.24,7.12c.62.75,1.52,1.72,2.57,1.36s.62-1.64.8-2.57.64-1.38.82-2.21c0-1.36-.31-2.93.38-4.06-.36,1.65.18,1.85.36,3.45a29,29,0,0,0,1.52,6.55,35.92,35.92,0,0,0,3.86,8.74,37.07,37.07,0,0,0,5.91,5.35,64,64,0,0,0,7.71,6.81l3.44,2.36,2.88,1.88c2.57,1.36,2.83-1.06,4.4-1.21a25.51,25.51,0,0,1,4.62,3.73,37.76,37.76,0,0,1,6.07,6.68l6.94,7.4c1.77,1.7,4,5,6.42,5.29l2.44.34a18.91,18.91,0,0,0,8.64.82,3.29,3.29,0,0,0,2.26-1.28c.7-.85,1.11-2,2.19-2.06a36.24,36.24,0,0,1,4.7,1.72,47.81,47.81,0,0,0,9.79,4.19,3.64,3.64,0,0,0,4.65-3.88c-.74-2.08-3.9-4.21-5.6-7.53a95.35,95.35,0,0,0-4.65-8.4l-4.29-5.14-2.57-4.07-1.26-1.74a12.76,12.76,0,0,1-.88-3.14L464.56,768c-1.33-2.57-4-2.31-5.7-5.91a16.1,16.1,0,0,0,5.14,4.09,36.86,36.86,0,0,0-3.7-7.17l-2.57-2.7a9.67,9.67,0,0,0,4.55,2.57l.56-2.19c.82-2.23,1.59-2.57,1.57-5.14-.23-4.52-4.4-11.08-5-16.65a33.88,33.88,0,0,1,.54-7.25v-4.29c0-.8.39-1.39.54-2.57v-3a9,9,0,0,0,.39-3.78l-1.26-4.42v-3.21l-.46-4.22c-.34-3.18,1.36-4.67,1.67-6.83A8.49,8.49,0,0,0,459,691c-.85-.46-2.57,0-2-1.41s3,1,3.65,1.8a8.13,8.13,0,0,0-.34-5.58l-1-6.86c-.46-1.83-1.62-2.8-1.72-3.57s1-.9,1.93-2.06a6.76,6.76,0,0,0,1.43-3.88v-4.55a7.74,7.74,0,0,1,4.45-5.73c2.37-.49,4.76,2,6.07,1.85s2-1.52,2.41-2.34l3.06-8.84h.54c1.31,2.29,2.57,2.7,4.47,4.42l1.52,1.72c.31.26.8,0,1.28-.38a10.24,10.24,0,0,0,1.42-6.79c-.39-1-1.54-2-1.95-3.32a4.82,4.82,0,0,1,.79-2.57,12.43,12.43,0,0,1,2.16-4.75,8,8,0,0,1,10.05-.9c1.47,1.21,1.29,2,1.9,2.78s2.21.87,2.57,2.44a11.69,11.69,0,0,1-.23,2.7,6,6,0,0,1-.13,3.75,26.55,26.55,0,0,0-2.95,4.8c-.83,2.21.51,2.37.18,4.27s-2,3.39-2.57,5.3c-.7,1.13-.57,2.21-1.8,3.11a8.71,8.71,0,0,1-3.68.59,20.61,20.61,0,0,0-4.06,2,3.42,3.42,0,0,0,.44,1.56c.44,1.57,1.77,1.44,3.06,1.06,2.08-.44,4.83-2,6.88-.36s2.34,6.76,3.86,8.48a8.22,8.22,0,0,0,4.16,1.52,9.57,9.57,0,0,1,2.86,1.59c2,1.7,1.38,3.08,2.31,4.34.87.72,1.64.39,2.57,1.39l3.91,6.32,2.57-2.39c.9,1,1.95.9,2.08-.43a13.07,13.07,0,0,0-.87-3.14,6.13,6.13,0,0,1,1.92,5.45,2.66,2.66,0,0,0,.18,1.59,8.17,8.17,0,0,0,2.26,3.81,2.37,2.37,0,0,0,2.91-.29,45.53,45.53,0,0,1,2.88-5.6c1.18-1.44,3.52-1.9,5.63-4.5-.54-.23-2.21-.87-2-1.69s2-1.26,3-1.88a8.69,8.69,0,0,0,2.91-5.14l-3.22-.26-1.92-.36-2.57.23-2.57-1.9-3.76-.2c.65-1.39,1.11-2.24,2.57-2.37.8,0,1.93.36,2.42,0,1-.36.9-1.41,1.65-2,1.41-1.72,3.49-2.18,3.8-4.34a23.23,23.23,0,0,0,3.73,0c2.23.87,2.93,4.83,3.93,6.89-2.75-.83-2.24,1.51-2.29,3.39,1-.62,2.19-2.06,3.21-2.42h3.45a5.06,5.06,0,0,0,1.8-.69c1.82-.41,3,.8,4,2.31,1-.61,1-1.15.31-2.16h1.31l-.75-2c-1.31,0-1.61-.13-2,1.23a3.9,3.9,0,0,0-2.57-.82l1-.9v-.54c-2.27-1.13.33-1.9.72-3.27a2.22,2.22,0,0,0-.47-1.82l3.32-1.36c1.41-1.75,2.57-.52,3.21-2.44,2.73.56,1.83-2.83,3.88-3.55.49-.31,1.31-.13,1.85-.18l2.29-1a8.67,8.67,0,0,0,2.57-.49,14.54,14.54,0,0,0,2.57-2.91,12,12,0,0,0,1.65-2,11.36,11.36,0,0,0-.31-2.9,2.4,2.4,0,0,0,2.57-.77,1.18,1.18,0,0,0,.23-1.66,1.2,1.2,0,0,0-.72-.45l-1.31.13,3.65-3.26.72-3.27-1,.36.36-1.64-2.93.25c.49-.56,1.9-2.31,2.36-2.88,1.24-.92,2.57-.77,3.22-2.44a15.41,15.41,0,0,0-7.48,5l-2.57,3.45.15-1.11c-2.57.77-2.41,2.37-3.42,3l-.48.34c.79,0-4.53,0-3.71.33a9.21,9.21,0,0,1-4-2.34c-.87-.72-1.49-1.46-2.57-.82l-4.65-4.09c.46-.56.69-.84,0-1.33s-2-.9-3.11-1.6c-2-1.69-2-3.29-2.21-5.68a9.61,9.61,0,0,0-1.21-3.9,7.8,7.8,0,0,0-1-2.06,26.8,26.8,0,0,0-2.93-2.39,8.54,8.54,0,0,0-4-2.31c-1.9-.36-3.37.82-5.14.43s-3.16-2.1-4.83-2.77a15.49,15.49,0,0,0-3.47,0c0-.54-.18-1.59-.72-1.8s-2.39.21-3.45.31-1.41-.7-2.23-.88a10.82,10.82,0,0,0-5,.44c-.51.34-.15,1.08,0,1.62Zm188.89-27.63c2.16,2.75,6,6.4,9.27,6.92-1-1.52-1.77-1.73-3-2.57a46.25,46.25,0,0,0-6.32-4.25ZM679.66,579.8l-.66-1.29a5.37,5.37,0,0,1,2.85,1.88,6.1,6.1,0,0,1,.51,2.1c.16,1.6,2.93,5.14,4.55,5.14.57.24.54,0,1.06,0l-1.37-5.14c-.61-.74-1.36-.41-2.28-1.38l-5.5-6.45c-.31-.52-1.55-2-1.37-2.83s1.8-.7,2.34-.75l-5.14-4.62c-.59-.49-1.49-1.47-2.57-1.11s-1.39,1.72-1.85,2.57-1.13,1.7-1.05,2.57a11.76,11.76,0,0,0,2.18,3l4.68,3.85a8.81,8.81,0,0,0,3.5,2.57Zm68.53-.54A20.83,20.83,0,0,0,742,568.59l-4.68-3.86a99,99,0,0,0-6.45-7.71c-2.91-2.41-5.14-3-7.71-4.93l-4.45-3.88-7.89-6.51a44,44,0,0,1-6-6.39c-1.57-2.27-1.13-3.11-2-4.09a8.88,8.88,0,0,0-3.81-2l.42-1.11-2-.9c1.11-2.24-.43-1.57-2-3.55-.61-.74-.72-1.82-1.69-3.34a22.74,22.74,0,0,0-5.53-4.32l-9.64-5.14a32.37,32.37,0,0,0-10.87-4.11c-2.57,0-4.37,1.47-7,2s-7.43.39-9,2.57,2.57,5.66,4,7.12l4.16,4.16a44.44,44.44,0,0,1,2.78,3.5,28.74,28.74,0,0,1,4.39,3.62c.95,1.26-.62,1.67.64,3.42a63.89,63.89,0,0,1,4,5c.39,1,.54,2.57,1.42,3.34s1.85-.15,2.57-.23c1.31-.39,5.14-2.32,6.24-1.62a64.17,64.17,0,0,1,5.94,5.6c.59.49,1.77,1.72,1.59,2.57.16,1.31-4-.18-3,1.6.33.51,2.88,1.87,3.75,2.57l3.27,2.9,3.78,2.88c.87.72,1.82,2.23,2.57,2.57,1.67.64,2.57-1.31,4-.36,2.8,1.34,4.81,5.14,7.71,7.58a17.66,17.66,0,0,0,4.16,1.49,37.23,37.23,0,0,1,3.76,2.57c2.26,1.13,2.57.31,5.14,2.57a101.63,101.63,0,0,1,9.51,9,21.78,21.78,0,0,0,5.55,4.32h.79l3-1.6a.28.28,0,0,0,.26-.3h0c.18-.8,0-1.88.23-2.7s.69-1.11.82-2.21,0-2.39.77-2.73,2.24.88,2.81,1.08Zm-64.52-68.81a7.49,7.49,0,0,0-.77-2.31,11.17,11.17,0,0,0-5.83-4.58c-.82-.18-3.29-.77-3.73,0s2.19,3,3,3.47a19.89,19.89,0,0,1,2.88,1.88,12,12,0,0,0,4.42,1.46ZM580.15,488.14a21.15,21.15,0,0,1,8.17,1.39c3,1.08,4.83,2.78,8.33,3l-3.94-4.4L595,486.6a15.24,15.24,0,0,0-2.83-1.62c-.59-.49-.64-1-1.23-1.49l-2.39.21a39.61,39.61,0,0,0-4.63,1.49c-1.57.41-3.65.87-3.72,2.75Zm16-7.32c-.38,1.36-1.69,1.74-2.93,2.57.31.23.34.49.62.74a43.77,43.77,0,0,0,6.3,1.31c2.57,0,2.75-1.59,5.88-2.13l3.94-.64a37.51,37.51,0,0,0,12-2.14c-1.26-1.77-2.06-1.69-4-2.31a15.79,15.79,0,0,0-9.33,0c-2.86.8-2.75,1.85-6.46,2.19l-6.09.28Z"/></g></g></svg>