<svg xmlns="http://www.w3.org/2000/svg" viewBox="0 0 393.91 203.37"><defs><style>.cls-1{fill:#fcb514;}.cls-2,.cls-3{fill:#a32638;}.cls-3{fill-rule:evenodd;}.cls-4{fill:#fff;}</style></defs><g id="katman_2" data-name="katman 2"><g id="katman_1-2" data-name="katman 1"><path class="cls-1" d="M72.07,100.1A27,27,0,1,0,109,90.25l-.63-.36a155.65,155.65,0,0,0-19-9,139.2,139.2,0,0,1-17.9-8.45,39.94,39.94,0,1,1,63.16-34.54H118.86a24.06,24.06,0,0,0-48,1.95,24.08,24.08,0,0,0,11.34,20.4,141.5,141.5,0,0,0,21.42,9.56l7.64,2.92a43.63,43.63,0,1,1-56.69,27.38"/><path class="cls-2" d="M70.84,71.84A40.54,40.54,0,0,1,60.35,60l.11-.06a63.67,63.67,0,1,0,97.46,38.72l-.87.17H117.84v15.43h25.92v.16A48.12,48.12,0,1,1,71,71.74"/><path class="cls-2" d="M74.82,52.8a24.37,24.37,0,0,0,7.55,7.44s4.27,2.4,10.13,5.06l-.2-.21C93.41,65,94.53,65,95.65,65a48,48,0,0,1,33.51,13.58l10.55-11.78a63.89,63.89,0,0,0-64.79-14"/><path class="cls-1" d="M160.51,173.06c-5.84,1.57-12.07,2.07-17.73,4,9.6-8.22,9.05-21,15.46-30.66,2-2.75,3.72-5.62,6.11-8.23-3.9,7.82-2.21,18-6.69,25.55a32.89,32.89,0,0,1-6.92,8.31c.89,0,1.67-.81,2.46-1.32,7.27-7.26,16.77-9.29,24.64-15.2a23.81,23.81,0,0,0,7.43-9.36c-1.5,12-13.47,23.33-24.76,26.92Z"/><path class="cls-1" d="M186.71,124.32c-3.56,5.06-7.86,9.77-11.15,14.92.37-4.07.84-9.08-.74-12.94-2.75-8.32-5.17-16.76-5.94-25.88l.1-3.49c2.07,9.32,11.22,15.73,10.65,26.18.21,2.53-.58,4.69-1,6.91l.16.16.42-.46c1.36-5.12,2-10.51,4.15-15.3,3-6.88,6.76-13.82,5.22-22.13,4.56,9.79,3.18,22.88-1.8,32Z"/><path class="cls-1" d="M181.09,71.54c6,8.13,7.31,21.1,2.95,30.42a53.44,53.44,0,0,0-3.42,12.54c-.3-.75-.37-1.77-.64-2.61-2.39-9.13-11-15.64-14.58-24.25a44.79,44.79,0,0,1-2.62-8.78c3.8,7,13.15,10.65,15.7,18.38,1,2,1,4.4,1.63,6.5a.25.25,0,0,0,.27-.23,89,89,0,0,1,.3-24.18c-.06-4.26-.47-8.4-2.84-11.7,1.52.89,2.2,2.59,3.26,3.91Z"/><path class="cls-1" d="M176.86,70c1.58,7.13-.72,14.07.73,21.27l-.06.06c-3.87-7.62-12.11-11.22-17.77-17.31-3.28-3.62-4.71-8-5.53-12.71,3.25,7.83,12,9.55,17,16.14,1.69,1.52,2.23,3.63,3.32,5.35l.17-.17c-2.89-6.17-3.86-13.12-5.87-19.7a15.23,15.23,0,0,0-5.71-7.45c6.6,1.35,12.32,8.24,13.69,14.54Z"/><path class="cls-1" d="M159.22,53.63c5,4.45,7.22,10.21,8.67,16.18l.82,1.89a71.21,71.21,0,0,1-18.37-19.53l-5.63-5.69c4.95,2.11,10.28,3.35,14.51,7.15Z"/><path class="cls-1" d="M45.3,47.43c-5,4.37-8.45,9.9-12.15,15-3.31,4.11-7.55,6.81-11.32,10.34,2-4.22,2.12-9.23,5-13.08,4.09-7.15,11.69-9.66,18.48-12.31Z"/><path class="cls-1" d="M18,62.65a16.92,16.92,0,0,1,9-6c-6.73,4.62-6.29,12.89-8.42,19.77-.68,2.53-1.86,4.88-2.44,7.49l.17.13a23.22,23.22,0,0,1,5.53-8.13c4.78-4.4,11.82-7.15,14.17-13.67-.11,9.06-7.66,16.18-14.89,21.26-3,2.62-5.85,5.6-7.49,9-.16-2.29.34-4.58.17-7C13,77.53,12.44,68.51,18,62.64Z"/><path class="cls-1" d="M4.43,89.68c-.2-8,3.12-14.55,7.81-20.52.13-.07.23-.2.42-.17-5.15,7.84-.89,17.71-1.12,26.6l-.68,9.12c.1.06.1.34.34.23q.36-1.56.57-3.15C13,94.43,19.37,89.21,25,84.13a14.53,14.53,0,0,0,2.86-4.24,38.23,38.23,0,0,1-3.13,10.75c-4.34,8.47-12.37,15.42-13.83,25.12-.72-9.29-7-16.25-6.41-26.1Z"/><path class="cls-1" d="M.53,101.07a36.12,36.12,0,0,1,2.11-7.4C.57,104.26,7.7,111.89,10,121.07c1,3.43,1.22,7.12,2.61,10.34.13.07.25-.07.33-.17-3.48-9.75,1.54-18.81,6.59-26.45A25,25,0,0,0,22.09,98c.54,4.41-.58,9.49-1.22,14.08-1.22,5.83-3.05,11.35-4.64,17-1.05,3.53-.77,7.52-.23,11.23l-.51-.43c-3.7-6.82-11-12.14-13.2-19.59C.5,114.4-.67,107.52.53,101Z"/><path class="cls-1" d="M.2,121.75C1,133,13.08,138.9,18.68,148.2c1.32,1.89,2.47,4,4.22,5.59-.28-1.2-1.39-2.2-1.8-3.42a24.18,24.18,0,0,1-2.2-13.26c.54-5.73,3-11.05,2-17.08,4.92,10.6,3.43,23.83,6.18,35.32.71,2.51,2.17,4.75,3.12,7.15-10.1-6.88-23.87-13.42-28.35-26C0,132.12-.24,126.74.18,121.75Z"/><path class="cls-1" d="M6.23,147.52c5.63,12.74,19.74,13.8,29.19,21.55A23.33,23.33,0,0,0,41,172.84l.1-.1c-2.17-2-4.68-4.2-6.2-6.75-5.53-7.7-3.59-18.48-7.73-26.76a63.43,63.43,0,0,1,9.47,14.31c3.37,8.34,4.67,17.77,12.5,24.08-8.47-2.79-18.4-2-25.88-7.23-8.16-5-15.45-13.51-17-22.88Z"/><path class="cls-1" d="M20.7,171.29c9,10.27,23.78,6.85,35.81,9.53,1.69.23,3.26.91,5.07.64-1.43-.91-3.42-.81-5-1.64-9.42-3.31-10.81-13.51-15.93-20.4,6.54,4.35,12,10.2,18.07,15.87,4.34,3.8,9.56,5.56,15.05,6.68-1.32.48-3,.35-4.47.72-9.88,2.42-20.85,6.4-31.33,2.84-6.81-2.14-13.84-7.53-17.27-14.24Z"/><path class="cls-2" d="M143.26,195.23c-10.17,3.8-20.79-.18-28.74-6.21-3.22-2-6-5-10.22-4.72a14.39,14.39,0,0,0-4.24.42,78.4,78.4,0,0,1,21.45,14.88,31.62,31.62,0,0,1-3.89,3.52c-6.33-6.8-13.32-13.36-21.15-17.18a13.69,13.69,0,0,0-4.38,1.86,65.2,65.2,0,0,0-17.43,15.57L70.59,200a74.12,74.12,0,0,1,21.56-15.36c-7.73-2.45-12.78,4-18.64,7.32-6.85,4.78-16.68,7-25,3.73a27.23,27.23,0,0,1-12-8.21c6.5,4.48,16.19,5,23.59,2,9.93-4.3,20.25-9.77,32.21-7.15,1.87,0,3.69,1.89,5.45.3A38.29,38.29,0,0,1,124.47,186l7.89,3.16c7.34,2.71,16.83,2,23.11-2.5a27.73,27.73,0,0,1-12.21,8.54Z"/><path class="cls-1" d="M154.16,184.71c-11.43,4.31-22.92-1-33.86-2.75l-2.12-.27v-.06c5.24-1.19,10.32-2.75,14.49-6.51,6.13-5.91,11.59-12,18.41-16.62-5.07,6.48-5.59,15.7-13.94,19.87-2.06,1.35-4.67,1.59-6.8,2.61,3,.07,5.82-1,8.83-1.32,11.2-1.76,24,0,31.85-9.49-2.91,6.64-10.21,12.2-16.86,14.54Z"/><path class="cls-1" d="M174.92,152.57c-4.51,3-9.09,5.69-13.42,9.05v-.42c6.64-11,3.37-26.2,7.49-38.34l1.52-4.07c-.84,7.57,2.43,14,2.2,21.57a24.23,24.23,0,0,1-4.13,12.31H169c3.25-4.27,5.79-8.82,9.59-12.89,5.92-5.69,11.91-11.52,12.67-19.42,2,13.19-5.4,24.74-16.34,32.21Z"/><polygon class="cls-3" points="95.18 121.86 96.44 121.86 96.44 153.55 95.18 153.55 95.18 121.86"/><polygon class="cls-3" points="88.32 118.74 89.22 119.64 66.79 142.03 65.9 141.14 88.32 118.74"/><polygon class="cls-3" points="86.17 112.14 86.17 113.4 54.49 113.37 54.49 112.1 86.17 112.14"/><polygon class="cls-3" points="89.19 106.03 88.3 106.92 65.89 84.51 66.78 83.62 89.19 106.03"/><polygon class="cls-3" points="96.43 103.43 95.16 103.43 95.19 71.73 96.45 71.73 96.43 103.43"/><polygon class="cls-3" points="102.76 106.45 101.88 105.56 124.31 83.17 125.2 84.07 102.76 106.45"/><polygon class="cls-3" points="105.22 113.5 105.21 112.24 136.9 112.2 136.9 113.46 105.22 113.5"/><polygon class="cls-3" points="101.56 119.95 102.45 119.06 124.87 141.45 123.99 142.34 101.56 119.95"/><path class="cls-3" d="M107.63,81.06a33.77,33.77,0,1,1-43.45,19.83v0A33.78,33.78,0,0,1,107.63,81.06Zm-.51,1.36a32.3,32.3,0,1,1-41.56,19A32.3,32.3,0,0,1,107.12,82.42Z"/><path class="cls-3" d="M104.92,88.3a26,26,0,1,1-33.49,15.27A26,26,0,0,1,104.92,88.3Zm-.52,1.38a24.55,24.55,0,1,1-31.6,14.4A24.56,24.56,0,0,1,104.4,89.68Z"/><path class="cls-3" d="M102.29,95.33a18.52,18.52,0,1,1-23.83,10.86h0a18.52,18.52,0,0,1,23.83-10.86Zm-.47,1.27a17.18,17.18,0,1,1-22.11,10.08h0A17.17,17.17,0,0,1,101.82,96.6Z"/><path class="cls-3" d="M99.33,103.23a10.08,10.08,0,1,1-13,5.91h0A10.09,10.09,0,0,1,99.33,103.23Zm-.51,1.37a8.62,8.62,0,1,1-11.1,5.06,8.62,8.62,0,0,1,11.1-5.06Z"/><path class="cls-3" d="M115.5,76.05c20.41,11.24,28.16,36.76,17.3,57s-36.25,27.51-56.67,16.27S48,112.56,58.82,92.32s36.26-27.5,56.68-16.27Zm-.72,1.33c19.68,10.83,27.14,35.43,16.67,54.91S96.5,158.8,76.83,148,49.69,112.55,60.16,93.06,95.1,66.55,114.78,77.38Z"/><path class="cls-2" d="M120.45,132.27c0,.21,0,.75,0,.87a.84.84,0,0,0,.67.07A2.57,2.57,0,0,0,122.3,132a1.19,1.19,0,0,0,.22-.81l-.32-1c-.08-.35-.19-1-.56-1.09,0-.1.15-.24.14-.37-.09-.38-.73-.28-1,0s-.09.45-.11.62a5,5,0,0,1-.25,1.39c-.14.32-.53.75-.54,1.1a.58.58,0,0,0,.53.42ZM98.9,129.54l.11.26s.06.12.1.12c.3.28.71-.37.22-.46,0,0-.13,0-.18,0a.45.45,0,0,0-.25.07Zm.32-.64c-.19.2-.27.33.06.48ZM94,125.07c-.32.29-.29.11-.46.21s0,.22-.13.43-.16.14-.15.23a.34.34,0,0,0,.25.24,2,2,0,0,0,.84-.12c.16-.15.1-.32.17-.46l.16-.19a.53.53,0,0,0-.7-.33Zm12.57-1.35,0,.42,0,.36a6.23,6.23,0,0,0,1.19-.42c.12-.06.37-.17.47-.09s.07.21,0,.31a3.59,3.59,0,0,1-.45.65c-.35.38-.88.42-1.32.82-.23.24-.3.47-.53.71a2.9,2.9,0,0,1-.53.39c-.12.15,0,.23-.27.38l.14-.32c-.13,0-.31,0-.42-.14a.58.58,0,0,1,0-.39,4,4,0,0,1,.27-1.17,4.46,4.46,0,0,1,.5-.22l-.06.27a1.16,1.16,0,0,0,.42-.08c.22-.06.43-.52.54-.71l-.59.23a3.2,3.2,0,0,1,.64-1ZM94.91,125c-.09.4.16.25.3.42a.5.5,0,0,1,.13.34l-.34.08-.15.23-.2.24.59.16c-.29.12-.47.09-.66.37l.74-.07a2.24,2.24,0,0,0,1.3-.16l-.1-.07.13-.43-.33-.19-.11-.25-.55-.65-.19-.07c.16-.19.47-.53,0-.62l-.22,0,.2-.24a.78.78,0,0,0-.69.15C94.55,124.54,94.54,124.89,94.91,125Zm-.26-5.64v.31l-.1-.12v.52c.08.3.42.18.5.09a.51.51,0,0,0,.09-.32.36.36,0,0,0-.11-.21.42.42,0,0,0-.22,0l0-.25h-.13Zm-35.77,2.77c0,.66.16.64.31,1.2a2.77,2.77,0,0,0,.19,1c.11.26.19.52.46.62a7,7,0,0,0-.42-1.85,5.06,5.06,0,0,1-.46-1h-.08Zm60-7.22a.42.42,0,0,0-.26.46.3.3,0,0,0,.26.33.3.3,0,0,0,.13,0c.29-.11.34-.86-.13-.77Zm-41-.1c-.1.23-.12.45.11.6,0-.22.06-.44-.09-.6Zm12.83.21.14.12a5,5,0,0,0,.62-.76,1.7,1.7,0,0,1,.45-.35.6.6,0,0,0,.09-.31c0-.13.2-.24.17-.55s-.16-.64-.46-.57l-.07-.21a1.07,1.07,0,0,0-.46.17c-.12.1-.06.27-.22.42a2,2,0,0,1-.61.43c-.13,0-.07.18-.27.33s-.48.08-.65.14a2.78,2.78,0,0,0-.68.55,2,2,0,0,0-.4.78c0,.09-.11.23-.06.32s.19.06.27,0,.54-.27.68-.24a1.16,1.16,0,0,1,.27.11,1.55,1.55,0,0,1,.31.06,1,1,0,0,1,.29.24c.23.1.46-.18.53-.36a.66.66,0,0,0,.06-.31Zm.25-3.38v0l-.05,0Zm.38.32a3.08,3.08,0,0,0,.79.72.36.36,0,0,0,.15-.19.66.66,0,0,0-.17-.78.51.51,0,0,0-.42.05.47.47,0,0,0-.11-.21c-.35-.33-.77.59-.22.42Zm-1.78-.57c.29.29.3.33.69.29-.06.27-.42.7-.69.5s-.21-.28-.3-.32-.15.23-.23.33c-.18.32-.49.31-.52.84l.17-.1c.16.34.47,0,.68-.15a1.14,1.14,0,0,0-.15.23.18.18,0,0,0,.14.21.16.16,0,0,0,.1,0c.13,0,.28-.28.4-.39a.89.89,0,0,1,.29-.15c.12-.1.28-.25.4-.34.36-.3.38-.13.5-.58,0-.09,0-.13,0-.22-.17-.38-.79-.06-.84-.1l-.27-.06c-.09,0-.26,0-.39,0Zm2-.09-.22,0,.06.13c.25-.07.42-.09.44-.39-.22,0-.26,0-.28.24Zm-13.68.84-.2,1,.09.42.19.84a3.82,3.82,0,0,0,.32-1l.06-.36a1,1,0,0,0-.07-.61l-.28.25v-.57h-.09ZM91.93,111c0-.26,0-.22.24-.2v-.42a1.54,1.54,0,0,0-.42.17c-.19.24-.17.45.18.47Zm-1.29-.59.15.17a1.07,1.07,0,0,1,.66.07l-.1-.17.11-.19c.26,0,.28-.24.17-.45,0,0-.14-.07-.19-.11-.47-.27-.51.13-.62.31l-.18.37Zm1.12-.14a.59.59,0,0,0,.26-.07.53.53,0,0,0-.07-.65.17.17,0,0,0-.2.19l0,.14,0,.22v.17Zm-14,1.08a1.46,1.46,0,0,0,.23-.73c-.31.15-.28.41-.25.71Zm1.53-2.82a2.21,2.21,0,0,1-.14,1.11,10.28,10.28,0,0,0-.7,1.36l-.11-.12a1.61,1.61,0,0,0-.08,1.2,3.37,3.37,0,0,0,.42-.85,7.93,7.93,0,0,0,.81-1.78,1.74,1.74,0,0,0,0-.85c0-.08-.1-.08-.19-.11Zm39.53,1.15a4.21,4.21,0,0,0,.37-1.4c.21-.94.65-1.37.52-2.53,0-.26-.13-.78-.42-.84-.49,0-.29.59-.32.73a.67.67,0,0,1,0,.31,3.14,3.14,0,0,0-.11,1.46l-.09,1.59.12.69Zm-7-7.49a.53.53,0,0,0,.11.21l.15.12c.28.15.42-.13.31-.3a.43.43,0,0,0-.31-.1A.59.59,0,0,0,111.84,102.23Zm6.5-.76a4.7,4.7,0,0,0,.36,1.37l.38.71.46,1.37a1,1,0,0,0,0-.93c-.19-.59-.48-1.18-.71-1.73a2.64,2.64,0,0,0-.52-.79Zm-2.41-.71,0,.49-.59-.21a1.55,1.55,0,0,0,.37,1l.48.35a12.21,12.21,0,0,1,1.12,1,3.59,3.59,0,0,1,.42.67c.1.08.19.16.32.1s.1-.27.13-.36l.15-.28a1.26,1.26,0,0,0-.22-.77l-.28-.63a2.61,2.61,0,0,0-.4-.8,1.69,1.69,0,0,0-1-.4l-.51-.22Zm-12.1.59c0,.18,0,.44-.26.51a.68.68,0,0,1-.27-.07l-.16.5a1.78,1.78,0,0,0-.2.63c0,.22.29.19.43,0a4.86,4.86,0,0,0,.29-.55c.18-.37.51-.53.55-1l-.4-.05Zm13.45-1.65a2.5,2.5,0,0,0,.42.75c.11.22.08.35.33.28a6.9,6.9,0,0,0-.77-1ZM99.08,102c-.49,0-.17.5-.23.72s-.6.58-.85.43a.62.62,0,0,1-.38,0c-.14,0-.24-.11-.37-.1l-.69.5a.9.9,0,0,1-.46.22.59.59,0,0,0-.38.12c-.12.1,0,.35.06.48l.2.29c-.42.12-.39.42-.35.84a9.16,9.16,0,0,0,.17,1.17.88.88,0,0,0,.58.47.83.83,0,0,0,.49.09l0-.53H97l.13.43h.18l.54.13.09.07c.06.13,0,.36,0,.49.07.3.39.36.65.34a2.46,2.46,0,0,1,0,.48c0,.22-.11.23.16.69,0,.08.16.29.29.28s.4-.34.69-.5c.07.21.07.25.26.37l-.06.23.49-.31c-.14.67-.42.52-.73.94-.11.23,0,.44-.1.67l0,0,.17-.1.13-.06c.38-.08.08.39.09.48a.31.31,0,0,0,.2.2l-.21.15.12.3-.78.06a2.87,2.87,0,0,0-1,.62v.09l.14,0-.75.38a2.05,2.05,0,0,0,.74-.07c.21-.06.17,0,.42-.08l.14.08,0,.17,1,.31c.22.07.39,0,.53,0s.12.34.42.42a2.11,2.11,0,0,0,.94-.17l-.35.38.16.29.43-.12c-.32.34-.3.07-.91.12.14.08.55.26.64.3s.35,0,.67.07.59.26.68-.15a.83.83,0,0,0,.16.21,1.36,1.36,0,0,0,.36.1c.18,0,.6.29.58.51l-.12.15a1.76,1.76,0,0,0-.21-.38c-.25-.28-.63-.16-1-.22l-.63-.16-.49,0c-.26,0-.42-.18-.67-.16-.09,0-.21.07-.2.15a.37.37,0,0,0,.15.21,3.32,3.32,0,0,1,.6.29c.24.16.32.11.55.18l.23.11c.18,0,.21-.07.39,0a1.13,1.13,0,0,1,.36.06l-.7.25L102,116c.12.25.17.29,0,.53l-.1-.17c-.12.14-.11.23-.23.38l-.19.23c0,.09-.15.23-.24.24s-.28-.15-.37-.23a.48.48,0,0,0-.49,0c.16.25.24.2.47.31a5.85,5.85,0,0,1,.82.67s-.09,0-.12.1a1,1,0,0,0,.11.6.4.4,0,0,0,.31.11l-.51.48c.23.07.31,0,.5.18l-.42,0-.58-.43-.59-.25a1.72,1.72,0,0,0,.78-.07c.37-.21.19-.64-.09-.87a1.16,1.16,0,0,0-.54-.13,3.5,3.5,0,0,0-.63-.12l-.48.09,0-.14c-.14,0-.19-.07-.31,0-.14-.12-.15-.16-.33-.19l0,.22-.2-.21,0,.23c-.11-.17-.11-.21-.29-.28l.15.55-.07.14a1.05,1.05,0,0,0-.22.9A3.41,3.41,0,0,1,98,120a3.24,3.24,0,0,1,0,.88,4.5,4.5,0,0,1-.26.81l-.2.24-.14.28c-.08.13-.2.24-.27.37s0,.26.08.35c.07.25-.11.18.19.55l-.15.19h.17c-.1.32.1.52.4.45a1,1,0,0,0,.51-.57h.09l.58,1c.1.12.13.33.3.36s.25-.15.32-.29.16-.15.24-.24-.11-.56-.08-.78.14-.28.16-.5-.26-.37-.42-.53a.88.88,0,0,1-.19-.56c-.05-.48.19-.63.24-1s-.14-.42-.15-.6,0-.27.14-.28c.3-.07.34.28.36.5l0,.42a2,2,0,0,0-.07.54,4.23,4.23,0,0,0,.22.42c.1.12.11.25.21.33a.24.24,0,0,0,.23.07.58.58,0,0,0,.26.06c.22-.06.43-.47.64-.63s.3-.06.42-.08a3.33,3.33,0,0,1-.34.47c-.17.1-.47.18-.48.42s.38.32.37.63-.35-.06-.46.22,0,.42.12.65a1.44,1.44,0,0,1-.09.4c-.18.32-.34.11-.59.27s-.42.42-.65.5-.31-.06-.44,0-.32.29-.61,0,0-.44,0-.7l-.17-.42c-.25.15-.49.35-.43.7s.43.53.26.76-.38.12-.59.28-.5.61-.58.66a2.52,2.52,0,0,0-.37.21l-.42.42-.08.1-.54-.17,0,.3a.9.9,0,0,1-.4,0c-.13,0-.42,0-.46.13s.29.24.38.27a.76.76,0,0,1,.42,1.11c-.16.14-.42,0-.61,0-.4,0-1-.22-1.43-.23s-.36.39-.46.66-.19.28-.22.42a.13.13,0,0,0,0,.13s.14.52.13.48c.07.17.37.14.55.17s.28.19.47.3a.51.51,0,0,0,.42,0c.39,0,.76.15,1.34-.17a.51.51,0,0,0,.28-.24c.12-.14.06-.27.22-.43s.59-.27.79-.42,0-.39.34-.51.44.09.74,0,.53-.36.79-.42.42.27.78.37l1.44.3a.37.37,0,0,1,.18.08c.39.31-.17.45-.38.52a1.23,1.23,0,0,1-.39.07s0,.09.1.12a1,1,0,0,0,.79,0,.38.38,0,0,0,0-.31.44.44,0,0,0,.33-.29c0-.14-.08-.26,0-.36a.61.61,0,0,1,.39-.13c-.21-.24-.37-.14-.64-.16s-.18-.11-.32-.14-.25.11-.42,0a4.4,4.4,0,0,0-.42-.18c-.15,0-.5-.13-.48-.35s.07-.14.16-.15a.19.19,0,0,1,.13,0l.06.17c.46-.17.31.06.71.11a4.77,4.77,0,0,1,1.15.12c.23.06.15.2.35.42s.59.12.89.1c0,0-.08,0-.08.09a.16.16,0,0,0,.12.25c.32.19.81-.2.39-.39l.67-.32c-.32-.15-.48,0-.91-.27a.54.54,0,0,0,.43-.17l0-.17.71-.38c-.23.38,0,.27.11.65.22,0,.49,0,.7,0a5.13,5.13,0,0,0,.76-.33c.12-.1.15-.24.27-.34l.5-.22a2.79,2.79,0,0,0,.51-.52c.08-.1.16-.19.29-.16s.23.5.25.68a1.48,1.48,0,0,1,.14.42c0,.57-.63.67-1,1s-.42.52-.68.63A7.34,7.34,0,0,1,105,130l-.9.17a1.1,1.1,0,0,0-.52.48c-.07.18,0,.4-.17.5a4.34,4.34,0,0,1-1.29.2c-.36,0-.24-.15-.76-.1a6.12,6.12,0,0,1-1.48.05,1.45,1.45,0,0,0,.26-.43c0-.09,0-.13,0-.21a.28.28,0,0,0-.07-.17c-.1-.13-.45-.09-.58-.08a2.55,2.55,0,0,1-.72.19l-1.6.19a16,16,0,0,0-1.69.42,3.23,3.23,0,0,1-.93-.08c-.19-.08-.38-.24-.59-.13s-.28.24-.52.35a5.87,5.87,0,0,0-1,.36c-.29.2-.14.37-.47.53a7.77,7.77,0,0,1-1,.08,2.74,2.74,0,0,0-1.14.37l-.46.17c-.17.06-.51.14-.59.27s0,.31,0,.42a1.07,1.07,0,0,1,0,.4c-.22.33-.81.6-.71,1.08.08.3.25.33.59.61A10.74,10.74,0,0,0,90,137.06a6.86,6.86,0,0,0,2.27,1.11l1.32.06a14.92,14.92,0,0,0,2,.22l1.63-.28a3.63,3.63,0,0,1,1.23,0c.36.09.42.35,1.08.29l.91-.12a.72.72,0,0,1,.61,0c.56.3-.39.87,0,1.22a5.65,5.65,0,0,0,1.36.36,3.32,3.32,0,0,1,1.07.56c.09.09.1.17.2.29s.33.19.35.32-.27.38-.35.48c-.24.24-.7.84-.42,1.22a1.81,1.81,0,0,0,.52.3l1.26.38c.55.21.6.64.93.88a2.15,2.15,0,0,0,.94.13l1.3.32c.46.14.27.43.62.48a5.27,5.27,0,0,0,2.53-1l1.25-.64a15.39,15.39,0,0,0,1.39-.87,6.21,6.21,0,0,0,2-2.46,8.46,8.46,0,0,0,.59-1.11c.06-.27-.22-.42-.12-.65s.71-.76.85-1.13a.46.46,0,0,0-.11-.6c-.18-.07-.31,0-.67-.07a11.85,11.85,0,0,1,1.18-2.08,2.63,2.63,0,0,0,.53-1.15c0-.39-.35-.42-.49-.57s-.11-.21-.21-.25-.47.09-.65.06a.57.57,0,0,1-.31-.1.79.79,0,0,0-.43,0,4.56,4.56,0,0,1,.43-2.27,9,9,0,0,0,.72-3.89l-.2-1c0-.12-.16-.29-.33-.23s-.48.84-.59,1.06l-.58,1.06a4.66,4.66,0,0,1-.45.75,3,3,0,0,1-.62.36c-.07-.22-.19-.16-.36-.1l-.79.42a2.14,2.14,0,0,1-.7.37c-.18,0-.28-.1-.53,0a3.11,3.11,0,0,1-.61.1c-.18,0-.37-.18-.54-.21a1,1,0,0,0-.52.08,6,6,0,0,1-1.57-.25c.09,0,.18-.06.16-.15s-.28-.58.15-.71h.17l.74,0,.43-.09c.22,0,.28.16.58.13l1.06-.27c.43,0,.62.38,1.07.08a3.7,3.7,0,0,0,.84-1.53l.38-1,.14-.67a2.53,2.53,0,0,0,.26-1.3l-.09-.84c0-.35-.11-.61-.46-.27s-.38.61-.82.56c-.12.53,0,1.23-.58,1.54-.21.15-.42.08-.64.15s-.29.16-.38.12a.2.2,0,0,1-.24-.18v0c0-.18.32-.29.44-.34a1.82,1.82,0,0,0,.94-.62c.19-.28.21-.5.36-.73s.29-.16.43-.35.32-.6.44-.78l.54-1.6c.26-.46.69-.54.81-1.12l.06.21c.46-.22.46-.66.37-1.09a8.36,8.36,0,0,0,1,0l1-.62c.25-.15.66-.45.72-.72s-.22-.77-.32-.9a.32.32,0,0,0-.19-.15c-.23-.07-.53,0-.69-.29a11.17,11.17,0,0,1-.59-1.44,4.6,4.6,0,0,0-.56-1.05,2.06,2.06,0,0,1-.11-.65c-.06-.12-.12-.25-.17-.38s.1-.27.22-.42c.18-.33.15-.58.35-.78s.3-.07.37-.21c.27-.38-.37-.67-.16-1.08.12-.19.43-.52.65-.54a3.2,3.2,0,0,0,.48,0c.16,0,.17-.43.24-.6.17-.45.42-.42.5-1.05a1.28,1.28,0,0,0-.08-.7c-.2-.25-.48,0-.55.14a1.23,1.23,0,0,0-.09.8,2,2,0,0,1-.21.84c-.19.33-.57.1-.67-.07s0-.17,0-.26a3.24,3.24,0,0,1,0-.88,3.78,3.78,0,0,0,.14-.76,3.53,3.53,0,0,0-.52-.7c-.19-.2-.55-.65-.88-.44s-.23.72-.28,1c0,.13-.09.42-.22.42a.55.55,0,0,1-.32-.14,1.12,1.12,0,0,1-.42-.8c.13,0,.49.13.52,0s-.23-.46-.4-.44-.2.15-.42,0a11.45,11.45,0,0,1-.83-1.11,2.75,2.75,0,0,0-1-.79c-.23-.07-1-.35-1.16-.21s-.07.19-.1.28a.23.23,0,0,0-.19-.07c-.31-.06-.42.3-.42.52s0,.26-.1.31-.22,0-.32-.1a1.48,1.48,0,0,0-.55-.3,2.45,2.45,0,0,0,.22.5c.26.33.43.32.39.76a2.71,2.71,0,0,1-1-.61l.34-.12V104c-.14-.07-.62-.42-.63-.59s.15-.15.14-.28-.11-.21,0-.4.37-.25.35-.42-.11-.16-.2-.2-.52-.35-.72-.15,0,.42-.12.84c-.14,0-.37-.14-.51-.17s-.38.07-.61,0-.42-.35-.71-.46a2.23,2.23,0,0,0-1.4,0,2.31,2.31,0,0,0-.78.16.81.81,0,0,0-.3.38c-.2.23-.58.36-.54.7s.34.32.42.4l.28.55a4.09,4.09,0,0,1-.7,0l-1,.22c-.52,0-.68-.29-1-.42a3.45,3.45,0,0,1-.45-.14c-.14-.07-.16-.25-.21-.29a1.21,1.21,0,0,0-.67-.16.23.23,0,0,1-.07.23,1.07,1.07,0,0,1-.61.36.34.34,0,0,1-.31,0l0-.17c0-.23-.11-.22-.27-.16a1.82,1.82,0,0,0-.62.43,2.28,2.28,0,0,1,.26-.46,2.14,2.14,0,0,1,.57-.32l.66-.42a4.8,4.8,0,0,0,.54-.32,2.19,2.19,0,0,0,.34-1.68,3.71,3.71,0,0,0-.94.56,2.59,2.59,0,0,1-.38.17.54.54,0,0,0-.18.36Zm4.62-1.59.42.31.33.58c.25-.11.28-.2.45-.26s.62.08.5-.26l-.15-.12,0,.13a2.37,2.37,0,0,0-.52-.35,3.79,3.79,0,0,0-1,0Zm1.47.22c.61-.06.5-.23.84-.26a1.44,1.44,0,0,1,.62,0l0,.17c.37.15.35-.07.62,0s.44.45.89.58c.18.07.28.11.42,0,.11.17.15.17.32.15,0-.22.15-.27.09-.42s-.51-.31-.55.13c-.16-.2-.07-.25-.13-.38a.66.66,0,0,0-.68-.16c-.08-.42,0-.3-.63-.6a2.64,2.64,0,0,0-.82-.32c-.27,0-.34.16-.54.27s-.26.11-.37.2a.84.84,0,0,0-.08.58Zm9.17-1.91.55.61a6.48,6.48,0,0,0,.66.81.83.83,0,0,0,.72.2c.17-.06.68-.58.26-.81-.14-.07-.34,0-.47,0a2.56,2.56,0,0,0-.09-.78c0-.08,0-.26-.2-.2s0,.74-.29.55l-.14-.08L115.2,99c-.15.19,0,.26.18.42a.85.85,0,0,1,.37.58c-.47-.31-.5-.57-.8-.94a.71.71,0,0,0-.61-.3Zm1.89-.42a2.37,2.37,0,0,0,.9,1.06c-.22-.41-.49-1-.9-1.09Zm-32.14,3.19.39,0,1.13.34a1.24,1.24,0,0,1,.85.36c-.56,0-.45,0-.89-.14-.28,0-.57,0-.85,0a3.42,3.42,0,0,1-.4-.09l-1.18.15c-.31,0-.38-.23-.56-.3a.45.45,0,0,0-.52,0,4.41,4.41,0,0,0-.85.52,5.94,5.94,0,0,0-1.52,1.26c-.27.38-.21.59-.47,1s-.89.65-1.32,1.22a5.62,5.62,0,0,0-.39.82,4.35,4.35,0,0,1-.74.46c-.12.05-.25.07-.34.12a1.18,1.18,0,0,0-.26.37l-.43.48a7.27,7.27,0,0,0-.58,1.06c0,.31.48.43.22.85l-.11.14c-.29.21-.37-.09-.59-.12s-.67.28-.91.08-.09-.39-.1-.56-.16-.29-.23-.46a2.29,2.29,0,0,0-.33-1c-.16-.25-.34-.32-.48,0l-.1.27c-.17-.37-.08-.69-.39-.75s-.52.44-.75.72a3.79,3.79,0,0,1-1.13,1l-.59.63-.37.25a2.8,2.8,0,0,0-.42.87l-.42,1.75c-.09.36-.25,1-.63,1.07a1.47,1.47,0,0,1-.66,0,3.13,3.13,0,0,0-.37-.23,1.56,1.56,0,0,1-.8-.1c-.19-.16-.45-.49-.63-.56a1.06,1.06,0,0,0-.53,0,4.09,4.09,0,0,1-.7,0c-.45-.13-.75-.81-.92-1.19a1,1,0,0,0-.32-.5c-.19-.16-.42.13-.65.06a8.66,8.66,0,0,1-.8-.54c-.05,0-.19-.16-.27-.11s-.12.19-.15.28a.87.87,0,0,0,.29.68s.2.19.08.3-.5-.53-.72-.2c0,.09,0,.13-.07.18h-.09l-.21-.73,0-.31-.29-.67-.36.34-.09-.39-.11-.3c-.07-.21-.24-.2-.43-.09s-.55.62-.75.77-.42,0-.6.1a1,1,0,0,0-.42.6L56.89,113a7.75,7.75,0,0,0-.31,3.19l.18.82.16,1.13.15.55h.08a7.13,7.13,0,0,1,.12-2.16c.16-.58.42-.69.42-1.4l.11.57c.23-.25.22-.42.55-.58a2,2,0,0,1,.23.51,2.57,2.57,0,0,0,.2.59,3.19,3.19,0,0,0,.3.42,2,2,0,0,1,.23.51c.12.3.22.77.58.87A2.72,2.72,0,0,0,60,117c0-.09,0-.36.13-.43s.3.33.31.45a4.45,4.45,0,0,0,.43,1.06c.21.38.38.33.66.91l.07-.22c.12.29,0,.53.29.72a4.7,4.7,0,0,1,0-1.06c0-.09.17-.1.26-.11l.2,1.48a1,1,0,0,0,.18.51c.25.24.54,0,.65.25l.17.77a12,12,0,0,0,.58,1.75,4.06,4.06,0,0,0,.69,1.17c.11.12.25.28.43.22s.1-.27.13-.42.1-.23.13-.36a1.25,1.25,0,0,1,.07-.67c-.06.27,0,.3.06.57a4.47,4.47,0,0,0,.24,1.07,5.81,5.81,0,0,0,.64,1.44,6.27,6.27,0,0,0,1,.88A10.21,10.21,0,0,0,68.54,128l.57.39.47.31c.43.22.47-.17.73-.2a5,5,0,0,1,.76.61,6.89,6.89,0,0,1,1,1.1l1.14,1.22c.29.28.66.82,1.06.87l.4,0a3.1,3.1,0,0,0,1.42.14.61.61,0,0,0,.37-.21c.11-.14.18-.32.36-.34a7.08,7.08,0,0,1,.77.28,7.89,7.89,0,0,0,1.61.69.6.6,0,0,0,.74-.41.58.58,0,0,0,0-.23c-.12-.34-.64-.69-.92-1.23a13.12,13.12,0,0,0-.76-1.38l-.71-.85-.42-.67-.21-.28a2.35,2.35,0,0,1-.14-.52l-.48-1.23c-.22-.42-.66-.38-.94-1a2.53,2.53,0,0,0,.85.67,6.19,6.19,0,0,0-.61-1.17l-.42-.45a1.53,1.53,0,0,0,.74.42l.1-.35c.13-.37.26-.43.25-.85,0-.74-.72-1.82-.82-2.73a6.07,6.07,0,0,1,.09-1.2v-.7c0-.13.07-.23.09-.42v-.49a1.45,1.45,0,0,0,.07-.62l-.21-.72V116l-.08-.69c0-.53.23-.77.28-1.13a1.48,1.48,0,0,0-.3-.72c-.14-.08-.43,0-.33-.23s.5.17.6.29a1.3,1.3,0,0,0-.06-.91l-.16-1.13c-.08-.3-.27-.46-.29-.59s.17-.14.32-.33a1.17,1.17,0,0,0,.24-.64v-.75a1.26,1.26,0,0,1,.73-.94c.39-.08.78.32,1,.3s.33-.25.4-.38l.5-1.45h.09c.22.37.42.44.74.72l.25.29s.13,0,.21-.07a1.71,1.71,0,0,0,.23-1.11c-.06-.17-.25-.33-.32-.55a.8.8,0,0,1,.13-.42,2,2,0,0,1,.35-.78,1.33,1.33,0,0,1,1.65-.15c.25.2.22.34.32.46s.36.14.42.4a2.12,2.12,0,0,1,0,.44,1,1,0,0,1,0,.62,4.54,4.54,0,0,0-.49.79c-.13.36.09.39,0,.7s-.33.56-.42.87-.09.36-.29.51a1.43,1.43,0,0,1-.61.1,3.35,3.35,0,0,0-.66.32.48.48,0,0,0,.07.26c.07.26.29.24.5.17s.79-.33,1.13-.06.39,1.11.63,1.4a1.44,1.44,0,0,0,.69.25,1.45,1.45,0,0,1,.47.26c.33.28.23.5.38.71s.27.06.42.23l.64,1,.42-.39c.15.16.32.14.35-.08a2.29,2.29,0,0,0-.15-.51,1,1,0,0,1,.32.89c0,.09,0,.18,0,.27a1.32,1.32,0,0,0,.37.62.38.38,0,0,0,.48,0,7.26,7.26,0,0,1,.47-.92c.19-.23.58-.31.92-.74-.08,0-.36-.14-.33-.27s.33-.21.49-.31a1.38,1.38,0,0,0,.48-.85l-.53,0-.31-.06-.43,0-.42-.31-.61,0c.1-.22.18-.36.42-.38s.32,0,.4,0,.14-.24.27-.34c.23-.28.57-.36.62-.71a3.11,3.11,0,0,0,.61,0c.37.14.48.79.65,1.13-.45-.14-.37.25-.38.56.17-.1.36-.34.53-.4h.57a1,1,0,0,0,.29-.11c.3-.07.5.13.66.38.16-.11.15-.19,0-.36h.21l-.12-.34c-.22,0-.27,0-.33.21a.6.6,0,0,0-.42-.14l.16-.15v-.09c-.37-.18,0-.31.12-.53a.36.36,0,0,0-.08-.3l.55-.22c.23-.29.42-.09.52-.41.45.1.3-.46.64-.58.08,0,.22,0,.3,0l.38-.16a1.49,1.49,0,0,0,.42-.08,2.13,2.13,0,0,0,.42-.48,1.4,1.4,0,0,0,.27-.33,1.57,1.57,0,0,0-.05-.48.4.4,0,0,0,.43-.13.2.2,0,0,0,0-.27.21.21,0,0,0-.12-.07l-.22,0,.6-.54.12-.53-.17,0,.06-.27-.48,0,.39-.48c.2-.15.42-.12.52-.4a2.5,2.5,0,0,0-1.22.82l-.43.56,0-.18c-.42.13-.4.39-.56.49l-.08.06c.13,0-.75,0-.61,0a1.57,1.57,0,0,1-.66-.38c-.14-.12-.24-.24-.42-.14l-.76-.67c.07-.09.11-.14,0-.22s-.32-.15-.51-.26c-.34-.28-.32-.54-.37-.93a1.63,1.63,0,0,0-.19-.65,1.29,1.29,0,0,0-.17-.33,3.64,3.64,0,0,0-.48-.4,1.51,1.51,0,0,0-.66-.38c-.31,0-.55.14-.84.08s-.52-.35-.8-.46a2.72,2.72,0,0,0-.57,0c0-.09,0-.26-.12-.3a2.6,2.6,0,0,0-.56.06c-.17,0-.23-.12-.37-.15a1.76,1.76,0,0,0-.82.07c-.09.06,0,.18,0,.27Zm31-4.54a3,3,0,0,0,1.52,1.13,1.38,1.38,0,0,0-.49-.42,7.12,7.12,0,0,0-1-.69Zm-3.48-1.75-.11-.21a.82.82,0,0,1,.47.3.85.85,0,0,1,.08.35c0,.26.49.84.75.84.09,0,.09,0,.17,0l-.22-.84c-.1-.12-.22-.07-.37-.23l-.91-1.06c0-.08-.25-.33-.22-.46s.29-.12.38-.12l-.84-.76c-.1-.08-.25-.24-.42-.19s-.23.29-.31.43-.18.27-.17.42a1.72,1.72,0,0,0,.36.49l.77.64a1.49,1.49,0,0,0,.57.42Zm11.26-.09a3.4,3.4,0,0,0-1-1.75l-.76-.64a16,16,0,0,0-1.06-1.26c-.48-.4-.85-.5-1.27-.81l-.73-.64L116.75,89a8.2,8.2,0,0,1-1-1c-.26-.37-.18-.51-.33-.67a1.4,1.4,0,0,0-.63-.32l.07-.18-.32-.15c.18-.37-.07-.26-.33-.59-.1-.12-.11-.29-.27-.54a3.45,3.45,0,0,0-.91-.71l-1.58-.85a5.25,5.25,0,0,0-1.79-.67,6.4,6.4,0,0,0-1.15.32c-.43.09-1.22.07-1.48.42s.42.93.65,1.17l.68.69a5,5,0,0,1,.46.57,4.59,4.59,0,0,1,.72.6c.16.2-.1.27.11.56s.45.53.66.82.08.42.23.55.3,0,.42,0,.84-.38,1-.27a12.1,12.1,0,0,1,1,.92c.1.08.29.29.26.42s-.66,0-.5.27c.06.08.48.3.62.42l.54.48.62.47c.14.12.3.37.42.42s.42-.21.65-.06c.46.22.79.85,1.27,1.25a2.9,2.9,0,0,0,.68.24,6.74,6.74,0,0,1,.62.42c.37.19.42,0,.85.43a16.76,16.76,0,0,1,1.56,1.48,3.29,3.29,0,0,0,.91.71h.13l.49-.26a0,0,0,0,0,0,0h0c0-.13,0-.31,0-.44s.12-.19.14-.37,0-.39.13-.44.36.14.46.17Zm-10.6-11.3a1.22,1.22,0,0,0-.13-.38,1.81,1.81,0,0,0-1-.76c-.13,0-.54-.12-.61,0s.36.5.5.57a3.17,3.17,0,0,1,.47.31,1.91,1.91,0,0,0,.73.24Zm-17-3.67a3.65,3.65,0,0,1,1.35.23A4.17,4.17,0,0,0,98,80.9l-.64-.72.37-.25a2.2,2.2,0,0,0-.47-.27c-.1-.08-.1-.16-.2-.24l-.39,0a6.15,6.15,0,0,0-.76.25c-.26.06-.6.14-.62.45ZM97.93,79c-.06.22-.28.29-.48.42,0,0,0,.08.1.12a7.26,7.26,0,0,0,1,.22c.43,0,.45-.26,1-.35l.65-.11a6.12,6.12,0,0,0,2-.35c-.21-.29-.34-.28-.66-.38a2.66,2.66,0,0,0-1.53,0c-.47.13-.45.31-1.06.36l-1,0Z"/><path class="cls-4" d="M245,91.58a17.9,17.9,0,0,1-12.81,5.13,19.22,19.22,0,0,1-19.26-19.25A19.25,19.25,0,0,1,245.1,63.21l-1.6,1.46a17.1,17.1,0,0,0-28.45,12.79,17.11,17.11,0,0,0,27.79,13.37V79.36H245Z"/><path class="cls-4" d="M260.92,75.43a15.91,15.91,0,0,1-6.35-3.66,8,8,0,0,1,11.29-11.24,6.65,6.65,0,0,1,1.78,2.8l-1.9.75A5.77,5.77,0,0,0,264.35,62a5.88,5.88,0,0,0-8.27,0,5.84,5.84,0,0,0,0,8.28,15.52,15.52,0,0,0,4.42,2.89,18.73,18.73,0,0,1,7.59,4.54,10.65,10.65,0,0,1,3.27,7.85,11.15,11.15,0,0,1-22.15,1.81l2-.73a9.07,9.07,0,1,0,15.42-7.47A17.22,17.22,0,0,0,260.92,75.43Z"/><path class="cls-4" d="M276.06,96.26V58.65h2.12v35.5h14.57v2.11Z"/><path class="cls-4" d="M300.82,58.65,314.94,83.1l14.11-24.45h2.42l-.09.16V96.26h-2.12V62.48L314.94,87.26,300.6,62.48V96.26h-2.11V58.81l-.1-.16Z"/><path class="cls-4" d="M361,58.65h2.14v27a12.44,12.44,0,0,1-3.6,7.32,12.29,12.29,0,0,1-21-8.68V58.65h2.14V84.32a10.15,10.15,0,0,0,20.29,0Z"/><path class="cls-4" d="M370.14,58.65h2.33L391.8,92.1V58.65h2.11V96.26H391.8L372.26,62.48V96.26h-2.12Z"/><path class="cls-4" d="M218.59,135.75q3.9-2.91,6.88-5.15a41.28,41.28,0,0,0,5.55-5,9.4,9.4,0,0,0,2.56-6.52,9,9,0,0,0-17.94-1l-2.14-.78a10.94,10.94,0,0,1,3.15-6.16A11.2,11.2,0,0,1,235.79,119a11.51,11.51,0,0,1-3.22,8.09,37.46,37.46,0,0,1-5.17,4.61l-6.73,5a11.72,11.72,0,0,0-4.65,7h19.77v2.12H213.62Q214.7,138.65,218.59,135.75Z"/><path class="cls-4" d="M266.94,133.69a12.91,12.91,0,0,1-25.82,0V121.23a12.91,12.91,0,0,1,25.82,0Zm-2.23-12.46a10.68,10.68,0,0,0-21.35,0v12.46a10.68,10.68,0,0,0,21.35,0Z"/><path class="cls-4" d="M277.37,135.75l6.87-5.15a41.28,41.28,0,0,0,5.55-5,9.35,9.35,0,0,0,2.56-6.52,9,9,0,0,0-17.94-1l-2.13-.78a10.94,10.94,0,0,1,3.15-6.16A11.2,11.2,0,0,1,294.56,119a11.47,11.47,0,0,1-3.22,8.09,37.46,37.46,0,0,1-5.17,4.61l-6.72,5a11.69,11.69,0,0,0-4.66,7h19.77v2.12H272.39Q273.47,138.65,277.37,135.75Z"/><path class="cls-4" d="M306.75,135.75q3.88-2.91,6.88-5.15a41.28,41.28,0,0,0,5.55-5,9.4,9.4,0,0,0,2.56-6.52,9,9,0,0,0-17.94-1l-2.14-.78a10.94,10.94,0,0,1,3.15-6.16A11.2,11.2,0,0,1,324,119a11.51,11.51,0,0,1-3.22,8.09,37.46,37.46,0,0,1-5.17,4.61l-6.73,5a11.72,11.72,0,0,0-4.65,7H324v2.12H301.78Q302.86,138.65,306.75,135.75Z"/></g></g></svg>