<svg xmlns="http://www.w3.org/2000/svg" viewBox="0 0 372.71 59.18"><g id="katman_2" data-name="katman 2"><g id="katman_1-2" data-name="katman 1"><path d="M193.42,13.16a3.29,3.29,0,1,0,3.28,3.29A3.29,3.29,0,0,0,193.42,13.16Z"/><path d="M178.81,17.37a13.8,13.8,0,1,0,13.8,13.8A13.81,13.81,0,0,0,178.81,17.37Zm0,22.64a8.84,8.84,0,1,1,8.84-8.84A8.84,8.84,0,0,1,178.81,40Z"/><path d="M189.77,59.18H167.4a16.84,16.84,0,0,1-16.83-16.82V20A16.85,16.85,0,0,1,167.4,3.16h22.37A16.85,16.85,0,0,1,206.6,20V42.36A16.84,16.84,0,0,1,189.77,59.18ZM167.4,8.43A11.57,11.57,0,0,0,155.84,20V42.36A11.57,11.57,0,0,0,167.4,53.91h22.37a11.57,11.57,0,0,0,11.56-11.55V20A11.57,11.57,0,0,0,189.77,8.43Z"/><path d="M28,34.67,29.6,24.53H19.87V18c0-2.77,1.36-5.47,5.71-5.47H30V3.84a54.43,54.43,0,0,0-7.85-.68c-8,0-13.25,4.85-13.25,13.65v7.72H0V34.67H8.91V59.18h11V34.67Z"/><path d="M125.75,9.87a28.36,28.36,0,0,1-6.88,2c1.1-.19,2.73-2.19,3.38-3a12.7,12.7,0,0,0,2.29-4.17c.06-.12.1-.27,0-.36a.38.38,0,0,0-.36,0A35.18,35.18,0,0,1,116,7.47a.56.56,0,0,1-.56-.15,6.18,6.18,0,0,0-.71-.73,14.56,14.56,0,0,0-4-2.43,13.64,13.64,0,0,0-6.06-1A14.49,14.49,0,0,0,99,4.81,14.69,14.69,0,0,0,94.31,8.6a14.23,14.23,0,0,0-2.77,5.55A15,15,0,0,0,91.39,20c0,.33,0,.38-.28.33-11.21-1.67-20.5-5.68-28-14.27-.33-.38-.5-.38-.77,0C59,11,60.59,19,64.71,22.9c.55.52,1.12,1,1.73,1.52A14.57,14.57,0,0,1,61,22.9c-.32-.21-.49-.09-.52.28a8.89,8.89,0,0,0,.09,1.61,14.38,14.38,0,0,0,8.87,11.46,7.9,7.9,0,0,0,1.79.55A16,16,0,0,1,66,37c-.39-.08-.54.12-.39.49,2.33,6.36,7.38,8.26,11.15,9.34.51.08,1,.08,1.52.2,0,0-.06,0-.09.09-1.25,1.91-5.59,3.33-7.62,4A27.21,27.21,0,0,1,59,52.61c-.63-.09-.76-.08-.93,0s0,.25.18.42c.79.52,1.59,1,2.41,1.42a38.54,38.54,0,0,0,7.73,3.1c13.9,3.83,29.55,1,40-9.35,8.19-8.14,11.06-19.37,11.06-30.61,0-.44.52-.68.83-.91A27.29,27.29,0,0,0,125.67,11,1.71,1.71,0,0,0,126,9.93V9.87C126,9.69,126,9.75,125.75,9.87Z"/><path d="M372.71,31.83a12.5,12.5,0,0,0-12.49-12.5h-32a12.5,12.5,0,0,0-12.49,12.5V46.69a12.49,12.49,0,0,0,12.49,12.49h32a12.49,12.49,0,0,0,12.49-12.49Zm-18.79,8.54L339.6,47.46c-.57.3-2.47-.1-2.47-.74V32.17c0-.64,1.92-1.05,2.48-.73l13.71,7.46C353.9,39.23,354.5,40.06,353.92,40.37Z"/><path d="M291.51,59.18H279.22v-.64c0-6.77,0-13.54,0-20.3a14.71,14.71,0,0,0-.72-5,5.25,5.25,0,0,0-4.94-3.75,8.23,8.23,0,0,0-4.34.7A6.13,6.13,0,0,0,266.12,34a17.5,17.5,0,0,0-.74,5.57q0,9.49,0,19v.63H253.19V19.72H264.9V25.2a3.07,3.07,0,0,0,.35-.33,12.31,12.31,0,0,1,9.14-5.95A17.44,17.44,0,0,1,283.91,20a11,11,0,0,1,6.21,6.86,28,28,0,0,1,1.39,9.35c0,7.51,0,15,0,22.52C291.53,58.88,291.52,59,291.51,59.18Z"/><path d="M245.37,19.72V59.17H233.2V19.72Z"/><path d="M246.46,7.12A7.14,7.14,0,1,1,239.27,0,7.2,7.2,0,0,1,246.46,7.12Z"/></g></g></svg>